<?xml version="1.0" standalone="no"?>
<!DOCTYPE svg PUBLIC "-//W3C//DTD SVG 20010904//EN"
 "http://www.w3.org/TR/2001/REC-SVG-20010904/DTD/svg10.dtd">
<svg version="1.0" xmlns="http://www.w3.org/2000/svg"
 width="1912.000000pt" height="2200.000000pt" viewBox="0 0 1912.000000 2200.000000"
 preserveAspectRatio="xMidYMid meet">

<g transform="translate(0.000000,2200.000000) scale(0.100000,-0.100000)"
fill="#ea580c" stroke="none">
<path d="M4470 21980 c0 -18 -7 -20 -80 -20 -61 0 -80 -3 -80 -14 0 -16 -30
-26 -77 -26 -26 0 -33 -4 -33 -20 0 -16 -7 -20 -34 -20 -25 0 -35 -5 -39 -20
-3 -11 -12 -20 -21 -20 -9 0 -16 -7 -16 -16 0 -9 -9 -18 -20 -21 -11 -3 -20
-12 -20 -19 0 -8 -9 -14 -20 -14 -13 0 -20 -7 -20 -20 0 -13 -7 -20 -20 -20
-13 0 -20 -7 -20 -20 0 -13 -7 -20 -20 -20 -13 0 -20 -7 -20 -20 0 -11 -6 -20
-14 -20 -8 0 -17 -15 -20 -35 -4 -20 -13 -35 -21 -35 -8 0 -16 -16 -20 -40 -4
-25 -12 -40 -21 -40 -8 0 -14 -9 -14 -20 0 -13 -7 -20 -20 -20 -17 0 -20 -7
-20 -40 0 -33 -3 -40 -20 -40 -16 0 -20 -7 -20 -35 0 -28 -4 -35 -20 -35 -13
0 -20 -7 -20 -20 0 -11 -7 -20 -15 -20 -11 0 -15 -11 -15 -36 0 -27 -5 -37
-19 -41 -12 -3 -21 -17 -26 -39 -3 -19 -12 -34 -19 -34 -8 0 -16 -17 -20 -40
-4 -26 -11 -40 -21 -40 -8 0 -15 -9 -15 -20 0 -13 -7 -20 -20 -20 -17 0 -20
-7 -20 -40 0 -33 -3 -40 -20 -40 -16 0 -20 -7 -20 -34 0 -25 -5 -35 -20 -39
-12 -3 -20 -14 -20 -26 0 -12 -6 -21 -15 -21 -8 0 -17 -14 -21 -35 -3 -20 -12
-35 -20 -35 -9 0 -14 -12 -14 -36 0 -27 -5 -37 -19 -41 -12 -3 -21 -17 -26
-39 -3 -20 -12 -34 -20 -34 -8 0 -15 -9 -15 -20 0 -13 -7 -20 -20 -20 -17 0
-20 -7 -20 -40 0 -33 -3 -40 -20 -40 -16 0 -20 -7 -20 -35 0 -24 -5 -35 -15
-35 -9 0 -15 -9 -15 -21 0 -12 -8 -23 -20 -26 -15 -4 -20 -14 -20 -39 0 -27
-4 -34 -20 -34 -16 0 -20 -7 -20 -36 0 -27 -5 -37 -20 -41 -11 -3 -20 -14 -20
-24 0 -12 -7 -19 -20 -19 -16 0 -20 -7 -20 -36 0 -27 -5 -37 -20 -41 -15 -4
-20 -14 -20 -39 0 -27 -4 -34 -20 -34 -16 0 -20 -7 -20 -35 0 -24 -5 -35 -15
-35 -9 0 -15 -9 -15 -21 0 -12 -8 -23 -20 -26 -15 -4 -20 -14 -20 -39 0 -27
-4 -34 -20 -34 -17 0 -20 -7 -20 -40 0 -33 -3 -40 -20 -40 -13 0 -20 -7 -20
-20 0 -13 -7 -20 -20 -20 -17 0 -20 -7 -20 -40 0 -28 -4 -40 -15 -40 -8 0 -17
-14 -21 -35 -3 -19 -12 -35 -19 -35 -7 0 -16 -16 -19 -35 -4 -21 -13 -35 -21
-35 -9 0 -15 -10 -15 -25 0 -18 -5 -25 -20 -25 -16 0 -20 -7 -20 -35 0 -28 -4
-35 -20 -35 -17 0 -20 -7 -20 -40 0 -33 -3 -40 -20 -40 -13 0 -20 -7 -20 -20
0 -13 -7 -20 -20 -20 -17 0 -20 -7 -20 -40 0 -33 -3 -40 -20 -40 -16 0 -20 -7
-20 -35 0 -23 -5 -35 -14 -35 -9 0 -17 -15 -21 -40 -4 -25 -12 -40 -21 -40 -8
0 -14 -9 -14 -20 0 -13 -7 -20 -20 -20 -16 0 -20 -7 -20 -36 0 -27 -5 -37 -20
-41 -15 -4 -20 -14 -20 -39 0 -27 -4 -34 -20 -34 -13 0 -20 -7 -20 -20 0 -11
-6 -20 -14 -20 -9 0 -17 -15 -21 -40 -4 -23 -12 -40 -20 -40 -7 0 -16 -16 -19
-35 -4 -20 -13 -35 -21 -35 -8 0 -16 -16 -20 -40 -4 -25 -12 -40 -21 -40 -8 0
-14 -9 -14 -20 0 -13 -7 -20 -20 -20 -17 0 -20 -7 -20 -40 0 -33 -3 -40 -20
-40 -16 0 -20 -7 -20 -35 0 -28 -4 -35 -20 -35 -15 0 -20 -7 -20 -25 0 -15 -6
-25 -15 -25 -8 0 -17 -14 -21 -35 -3 -19 -12 -35 -19 -35 -8 0 -16 -17 -20
-40 -4 -25 -12 -40 -21 -40 -8 0 -14 -9 -14 -20 0 -13 -7 -20 -20 -20 -16 0
-20 -7 -20 -35 0 -28 -4 -35 -20 -35 -17 0 -20 -7 -20 -40 0 -33 -3 -40 -20
-40 -16 0 -20 -7 -20 -34 0 -25 -5 -35 -20 -39 -12 -3 -20 -14 -20 -26 0 -12
-6 -21 -14 -21 -8 0 -17 -15 -20 -35 -4 -20 -13 -35 -21 -35 -8 0 -16 -16 -20
-40 -4 -25 -12 -40 -21 -40 -8 0 -14 -9 -14 -20 0 -13 -7 -20 -20 -20 -16 0
-20 -7 -20 -35 0 -28 -4 -35 -20 -35 -17 0 -20 -7 -20 -40 0 -33 -3 -40 -20
-40 -16 0 -20 -7 -20 -35 0 -24 -5 -35 -15 -35 -9 0 -15 -9 -15 -21 0 -12 -8
-23 -20 -26 -15 -4 -20 -14 -20 -39 0 -27 -4 -34 -19 -34 -15 0 -21 -10 -26
-40 -4 -25 -12 -40 -21 -40 -8 0 -14 -9 -14 -20 0 -13 -7 -20 -20 -20 -16 0
-20 -7 -20 -36 0 -27 -5 -37 -20 -41 -15 -4 -20 -14 -20 -39 0 -27 -4 -34 -20
-34 -16 0 -20 -7 -20 -35 0 -24 -5 -35 -15 -35 -9 0 -15 -9 -15 -21 0 -12 -8
-23 -20 -26 -15 -4 -20 -14 -20 -39 0 -27 -4 -34 -20 -34 -17 0 -20 -7 -20
-40 0 -33 -3 -40 -20 -40 -13 0 -20 -7 -20 -20 0 -13 -7 -20 -20 -20 -17 0
-20 -7 -20 -40 0 -33 -3 -40 -20 -40 -16 0 -20 -7 -20 -35 0 -23 -5 -35 -14
-35 -8 0 -17 -15 -20 -35 -4 -21 -13 -35 -21 -35 -9 0 -15 -10 -15 -25 0 -18
-5 -25 -20 -25 -16 0 -20 -7 -20 -36 0 -27 -5 -37 -19 -41 -12 -3 -21 -17 -26
-39 -3 -20 -12 -34 -20 -34 -8 0 -15 -9 -15 -20 0 -13 -7 -20 -20 -20 -17 0
-20 -7 -20 -40 0 -33 -3 -40 -20 -40 -16 0 -20 -7 -20 -35 0 -24 -5 -35 -15
-35 -10 0 -15 -10 -15 -32 0 -48 -10 -78 -26 -78 -12 0 -14 -42 -14 -235 0
-201 2 -235 15 -235 10 0 17 -14 21 -40 4 -24 12 -40 20 -40 9 0 14 -12 14
-35 0 -28 4 -35 20 -35 17 0 20 -7 20 -40 0 -33 3 -40 20 -40 13 0 20 -7 20
-20 0 -13 7 -20 20 -20 16 0 20 -7 20 -35 0 -28 4 -35 20 -35 13 0 20 -7 20
-20 0 -13 7 -20 20 -20 13 0 20 -7 20 -20 0 -11 6 -20 14 -20 8 0 17 -15 20
-35 4 -21 13 -35 21 -35 9 0 15 -9 15 -21 0 -12 8 -23 20 -26 11 -3 20 -14 20
-24 0 -11 7 -19 15 -19 8 0 17 -14 21 -35 4 -25 11 -35 25 -35 12 0 19 -7 19
-20 0 -13 7 -20 20 -20 16 0 20 -7 20 -35 0 -25 4 -35 16 -35 9 0 18 -9 21
-20 3 -11 12 -20 19 -20 8 0 14 -9 14 -20 0 -13 7 -20 20 -20 17 0 20 -7 20
-40 0 -33 3 -40 20 -40 13 0 20 -7 20 -20 0 -13 7 -20 20 -20 13 0 20 -7 20
-20 0 -11 7 -20 15 -20 8 0 17 -14 20 -34 5 -22 14 -36 26 -39 10 -3 19 -12
19 -21 0 -9 7 -16 15 -16 9 0 15 -9 15 -21 0 -12 8 -23 20 -26 15 -4 20 -14
20 -39 0 -27 4 -34 20 -34 13 0 20 -7 20 -20 0 -13 7 -20 20 -20 16 0 20 -7
20 -35 0 -28 4 -35 20 -35 13 0 20 -7 20 -20 0 -13 7 -20 20 -20 13 0 20 -7
20 -20 0 -11 6 -20 14 -20 8 0 17 -15 20 -35 4 -21 13 -35 21 -35 8 0 15 -9
15 -20 0 -13 7 -20 20 -20 15 0 20 -7 20 -25 0 -18 5 -25 20 -25 16 0 20 -7
20 -35 0 -28 4 -35 20 -35 13 0 20 -7 20 -20 0 -13 7 -20 20 -20 13 0 20 -7
20 -20 0 -11 7 -20 15 -20 8 0 17 -14 20 -34 5 -22 14 -36 26 -39 10 -3 19
-12 19 -21 0 -9 7 -16 15 -16 11 0 15 -11 15 -40 0 -33 3 -40 20 -40 13 0 20
-7 20 -20 0 -13 7 -20 20 -20 13 0 20 -7 20 -20 0 -13 7 -20 20 -20 16 0 20
-7 20 -35 0 -28 4 -35 20 -35 13 0 20 -7 20 -19 0 -10 9 -21 20 -24 11 -3 20
-12 20 -21 0 -9 6 -16 14 -16 8 0 17 -15 20 -35 4 -21 13 -35 21 -35 9 0 15
-10 15 -25 0 -18 5 -25 20 -25 13 0 20 -7 20 -20 0 -11 7 -20 15 -20 8 0 17
-14 21 -35 4 -25 11 -35 25 -35 12 0 19 -7 19 -20 0 -11 6 -20 14 -20 8 0 17
-15 20 -35 4 -21 13 -35 21 -35 8 0 15 -9 15 -20 0 -13 7 -20 20 -20 15 0 20
-7 20 -25 0 -18 5 -25 20 -25 16 0 20 -7 20 -35 0 -28 4 -35 20 -35 13 0 20
-7 20 -20 0 -13 7 -20 20 -20 13 0 20 -7 20 -20 0 -11 7 -20 15 -20 8 0 17
-14 20 -34 5 -22 14 -36 26 -39 10 -3 19 -12 19 -21 0 -9 7 -16 15 -16 9 0 15
-9 15 -21 0 -12 8 -23 20 -26 15 -4 20 -14 20 -39 0 -27 4 -34 20 -34 13 0 20
-7 20 -20 0 -13 7 -20 20 -20 16 0 20 -7 20 -35 0 -28 4 -35 20 -35 13 0 20
-7 20 -19 0 -10 9 -21 20 -24 11 -3 20 -12 20 -21 0 -9 6 -16 14 -16 8 0 17
-15 20 -35 4 -21 13 -35 21 -35 8 0 15 -9 15 -20 0 -13 7 -20 20 -20 15 0 20
-7 20 -25 0 -18 5 -25 20 -25 16 0 20 -7 20 -35 0 -28 4 -35 20 -35 13 0 20
-7 20 -19 0 -10 9 -21 20 -24 11 -3 20 -12 20 -21 0 -9 6 -16 14 -16 8 0 17
-15 20 -35 4 -21 13 -35 21 -35 8 0 15 -9 15 -20 0 -13 7 -20 20 -20 17 0 20
-7 20 -40 0 -33 3 -40 20 -40 13 0 20 -7 20 -20 0 -13 7 -20 20 -20 13 0 20
-7 20 -20 0 -11 7 -20 15 -20 8 0 17 -14 21 -35 4 -21 12 -35 21 -35 8 0 17
-9 20 -20 3 -11 12 -20 19 -20 8 0 14 -9 14 -20 0 -13 7 -20 20 -20 16 0 20
-7 20 -35 0 -28 4 -35 20 -35 15 0 20 -7 20 -25 0 -18 5 -25 20 -25 13 0 20
-7 20 -20 0 -11 7 -20 15 -20 8 0 17 -14 21 -35 4 -25 11 -35 25 -35 12 0 19
-7 19 -20 0 -11 6 -20 14 -20 8 0 17 -15 20 -35 4 -21 13 -35 21 -35 9 0 15
-10 15 -25 0 -18 5 -25 20 -25 18 0 20 -7 20 -60 0 -44 4 -60 14 -60 19 0 26
-32 26 -133 0 -81 -2 -89 -20 -94 -17 -5 -20 -14 -20 -59 0 -47 -2 -54 -20
-54 -17 0 -20 -7 -20 -40 0 -27 -4 -40 -14 -40 -8 0 -17 -15 -20 -35 -4 -20
-13 -35 -21 -35 -8 0 -16 -16 -20 -40 -4 -25 -12 -40 -21 -40 -8 0 -14 -9 -14
-20 0 -13 -7 -20 -20 -20 -16 0 -20 -7 -20 -36 0 -27 -5 -37 -20 -41 -15 -4
-20 -14 -20 -39 0 -27 -4 -34 -20 -34 -13 0 -20 -7 -20 -20 0 -11 -6 -20 -14
-20 -9 0 -17 -15 -21 -40 -4 -23 -12 -40 -20 -40 -7 0 -16 -16 -19 -35 -4 -19
-13 -35 -20 -35 -8 0 -16 -17 -20 -40 -4 -26 -11 -40 -21 -40 -8 0 -15 -9 -15
-20 0 -13 -7 -20 -20 -20 -17 0 -20 -7 -20 -40 0 -33 -3 -40 -20 -40 -16 0
-20 -7 -20 -34 0 -25 -5 -35 -20 -39 -12 -3 -20 -14 -20 -26 0 -12 -6 -21 -15
-21 -10 0 -15 -10 -15 -31 0 -22 -5 -32 -19 -36 -13 -3 -22 -17 -26 -44 -4
-22 -12 -39 -20 -39 -7 0 -16 -16 -19 -35 -4 -21 -13 -35 -21 -35 -8 0 -15 -9
-15 -20 0 -13 -7 -20 -20 -20 -17 0 -20 -7 -20 -40 0 -33 -3 -40 -20 -40 -16
0 -20 -7 -20 -34 0 -25 -5 -35 -20 -39 -12 -3 -20 -14 -20 -26 0 -12 -6 -21
-15 -21 -10 0 -15 -11 -15 -35 0 -28 -4 -35 -20 -35 -16 0 -20 -7 -20 -36 0
-27 -5 -37 -19 -41 -12 -3 -21 -17 -26 -39 -3 -20 -12 -34 -20 -34 -9 0 -15
-9 -15 -21 0 -12 -8 -23 -20 -26 -15 -4 -20 -14 -20 -39 0 -27 -4 -34 -20 -34
-16 0 -20 -7 -20 -35 0 -24 -5 -35 -15 -35 -9 0 -15 -9 -15 -21 0 -12 -8 -23
-20 -26 -15 -4 -20 -14 -20 -39 0 -27 -4 -34 -20 -34 -16 0 -20 -7 -20 -36 0
-27 -5 -37 -19 -41 -12 -3 -21 -17 -26 -39 -3 -20 -12 -34 -20 -34 -9 0 -15
-9 -15 -21 0 -12 -8 -23 -20 -26 -15 -4 -20 -14 -20 -39 0 -27 -4 -34 -20 -34
-16 0 -20 -7 -20 -35 0 -24 -5 -35 -15 -35 -9 0 -15 -9 -15 -25 0 -18 -5 -25
-20 -25 -16 0 -20 -7 -20 -35 0 -28 -4 -35 -20 -35 -17 0 -20 -7 -20 -40 0
-33 -3 -40 -20 -40 -13 0 -20 -7 -20 -20 0 -13 -7 -20 -20 -20 -17 0 -20 -7
-20 -40 0 -28 -4 -40 -15 -40 -8 0 -17 -14 -21 -35 -3 -19 -12 -35 -19 -35 -7
0 -16 -16 -19 -35 -4 -21 -13 -35 -21 -35 -9 0 -15 -10 -15 -25 0 -18 -5 -25
-20 -25 -16 0 -20 -7 -20 -36 0 -27 -5 -37 -20 -41 -15 -4 -20 -14 -20 -39 0
-27 -4 -34 -20 -34 -13 0 -20 -7 -20 -20 0 -13 -7 -20 -20 -20 -17 0 -20 -7
-20 -40 0 -27 -4 -40 -14 -40 -8 0 -17 -15 -20 -35 -4 -20 -13 -35 -21 -35 -8
0 -16 -16 -20 -40 -4 -25 -12 -40 -21 -40 -8 0 -14 -9 -14 -20 0 -13 -7 -20
-20 -20 -17 0 -20 -7 -20 -40 0 -33 -3 -40 -20 -40 -16 0 -20 -7 -20 -35 0
-28 -4 -35 -20 -35 -13 0 -20 -7 -20 -20 0 -11 -6 -20 -14 -20 -9 0 -17 -15
-21 -40 -4 -23 -12 -40 -20 -40 -7 0 -16 -16 -19 -35 -4 -20 -13 -35 -21 -35
-8 0 -16 -16 -20 -40 -4 -25 -12 -40 -21 -40 -8 0 -14 -9 -14 -20 0 -13 -7
-20 -20 -20 -17 0 -20 -7 -20 -40 0 -33 -3 -40 -20 -40 -16 0 -20 -7 -20 -35
0 -28 -4 -35 -20 -35 -15 0 -20 -7 -20 -25 0 -16 -6 -25 -15 -25 -10 0 -15
-11 -15 -35 0 -28 -4 -35 -19 -35 -15 0 -21 -10 -26 -40 -4 -23 -12 -40 -20
-40 -7 0 -16 -16 -19 -35 -4 -21 -13 -35 -21 -35 -8 0 -15 -9 -15 -20 0 -13
-7 -20 -20 -20 -17 0 -20 -7 -20 -40 0 -33 -3 -40 -20 -40 -16 0 -20 -7 -20
-34 0 -25 -5 -35 -20 -39 -12 -3 -20 -14 -20 -26 0 -12 -6 -21 -14 -21 -8 0
-17 -15 -20 -35 -4 -21 -13 -35 -21 -35 -10 0 -15 -11 -15 -36 0 -27 -5 -37
-20 -41 -11 -3 -20 -14 -20 -24 0 -12 -7 -19 -20 -19 -16 0 -20 -7 -20 -36 0
-27 -5 -37 -20 -41 -15 -4 -20 -14 -20 -39 0 -27 -4 -34 -20 -34 -16 0 -20 -7
-20 -35 0 -24 -5 -35 -15 -35 -9 0 -15 -9 -15 -21 0 -12 -8 -23 -20 -26 -15
-4 -20 -14 -20 -39 0 -27 -4 -34 -20 -34 -16 0 -20 -7 -20 -36 0 -27 -5 -37
-20 -41 -11 -3 -20 -14 -20 -24 0 -12 -7 -19 -20 -19 -17 0 -20 -7 -20 -40 0
-33 -3 -40 -20 -40 -16 0 -20 -7 -20 -35 0 -23 -5 -35 -14 -35 -13 0 -26 -41
-26 -86 0 -14 -6 -24 -14 -24 -11 0 -16 -28 -21 -124 -9 -162 2 -346 21 -346
9 0 14 -11 14 -32 0 -48 10 -78 26 -78 10 0 14 -13 14 -40 0 -33 3 -40 20 -40
13 0 20 -7 20 -20 0 -13 7 -20 20 -20 16 0 20 -7 20 -35 0 -28 4 -35 20 -35
13 0 20 -7 20 -19 0 -10 9 -21 20 -24 11 -3 20 -12 20 -21 0 -9 6 -16 14 -16
9 0 17 -15 21 -40 4 -25 12 -40 21 -40 8 0 14 -7 14 -16 0 -9 9 -18 20 -21 15
-4 20 -14 20 -39 0 -27 4 -34 20 -34 13 0 20 -7 20 -20 0 -13 7 -20 20 -20 13
0 20 -7 20 -20 0 -11 7 -20 15 -20 8 0 17 -14 20 -34 5 -22 14 -36 26 -39 10
-3 19 -12 19 -21 0 -9 7 -16 15 -16 9 0 15 -9 15 -21 0 -12 8 -23 20 -26 15
-4 20 -14 20 -39 0 -27 4 -34 20 -34 13 0 20 -7 20 -20 0 -13 7 -20 20 -20 13
0 20 -7 20 -20 0 -11 7 -20 15 -20 8 0 17 -14 20 -34 5 -22 14 -36 26 -39 10
-3 19 -12 19 -21 0 -9 6 -16 14 -16 9 0 17 -15 21 -40 4 -25 12 -40 21 -40 8
0 14 -9 14 -20 0 -13 7 -20 20 -20 13 0 20 -7 20 -20 0 -13 7 -20 20 -20 16 0
20 -7 20 -35 0 -28 4 -35 20 -35 13 0 20 -7 20 -20 0 -13 7 -20 20 -20 13 0
20 -7 20 -20 0 -11 6 -20 14 -20 8 0 17 -15 20 -35 4 -21 13 -35 21 -35 8 0
15 -9 15 -20 0 -13 7 -20 20 -20 15 0 20 -7 20 -25 0 -15 6 -25 15 -25 8 0 17
-14 21 -35 4 -25 11 -35 25 -35 12 0 19 -7 19 -20 0 -13 7 -20 20 -20 16 0 20
-7 20 -35 0 -28 4 -35 20 -35 13 0 20 -7 20 -19 0 -10 9 -21 20 -24 11 -3 20
-12 20 -21 0 -9 7 -16 15 -16 11 0 15 -11 15 -40 0 -33 3 -40 20 -40 13 0 20
-7 20 -20 0 -13 7 -20 20 -20 13 0 20 -7 20 -20 0 -13 7 -20 20 -20 16 0 20
-7 20 -35 0 -28 4 -35 20 -35 13 0 20 -7 20 -20 0 -11 7 -20 15 -20 8 0 15 -9
15 -20 0 -13 7 -20 20 -20 16 0 20 -7 20 -36 0 -27 5 -37 20 -41 11 -3 20 -14
20 -24 0 -12 7 -19 20 -19 16 0 20 -7 20 -35 0 -28 4 -35 20 -35 13 0 20 -7
20 -20 0 -13 7 -20 20 -20 13 0 20 -7 20 -20 0 -11 7 -20 15 -20 8 0 17 -14
21 -35 3 -20 12 -35 20 -35 8 0 14 -9 14 -20 0 -13 7 -20 20 -20 15 0 20 -7
20 -25 0 -18 5 -25 20 -25 16 0 20 -7 20 -35 0 -28 4 -35 20 -35 13 0 20 -7
20 -20 0 -13 7 -20 20 -20 13 0 20 -7 20 -20 0 -11 7 -20 15 -20 8 0 17 -14
20 -34 5 -22 14 -36 26 -39 10 -3 19 -12 19 -21 0 -9 6 -16 14 -16 9 0 17 -15
21 -40 4 -25 12 -40 21 -40 8 0 14 -9 14 -20 0 -13 7 -20 20 -20 13 0 20 -7
20 -20 0 -13 7 -20 20 -20 16 0 20 -7 20 -35 0 -28 4 -35 20 -35 13 0 20 -7
20 -20 0 -11 7 -20 15 -20 8 0 15 -9 15 -20 0 -13 7 -20 20 -20 16 0 20 -7 20
-36 0 -27 5 -37 20 -41 11 -3 20 -11 20 -18 0 -7 9 -15 20 -18 12 -3 20 -14
20 -26 0 -12 6 -21 15 -21 8 0 17 -14 21 -35 4 -25 11 -35 25 -35 12 0 19 -7
19 -20 0 -11 7 -20 15 -20 8 0 17 -14 20 -34 5 -22 14 -36 26 -39 10 -3 19
-12 19 -21 0 -9 7 -16 15 -16 8 0 15 -8 15 -19 0 -10 9 -21 20 -24 15 -4 20
-14 20 -41 0 -29 4 -36 20 -36 13 0 20 -7 20 -20 0 -13 7 -20 20 -20 13 0 20
-7 20 -20 0 -11 7 -20 15 -20 8 0 17 -14 21 -35 4 -21 12 -35 21 -35 8 0 17
-9 20 -20 3 -11 12 -20 19 -20 8 0 14 -9 14 -20 0 -13 7 -20 20 -20 17 0 20
-7 20 -40 0 -33 3 -40 20 -40 13 0 20 -7 20 -20 0 -13 7 -20 20 -20 16 0 20
-7 20 -35 0 -28 4 -35 20 -35 13 0 20 -7 20 -20 0 -13 7 -20 20 -20 13 0 20
-7 20 -20 0 -11 6 -20 14 -20 8 0 17 -15 20 -35 4 -21 13 -35 21 -35 8 0 15
-9 15 -20 0 -13 7 -20 20 -20 15 0 20 -7 20 -25 0 -18 5 -25 20 -25 16 0 20
-7 20 -35 0 -28 4 -35 20 -35 13 0 20 -7 20 -20 0 -13 7 -20 20 -20 13 0 20
-7 20 -20 0 -11 6 -20 14 -20 8 0 17 -15 20 -35 4 -21 13 -35 21 -35 8 0 15
-9 15 -20 0 -13 7 -20 20 -20 13 0 20 -7 20 -20 0 -13 7 -20 20 -20 13 0 20
-7 20 -20 0 -11 6 -20 14 -20 7 0 16 -9 19 -20 3 -11 12 -20 20 -20 8 0 17 -9
20 -20 3 -12 14 -20 26 -20 12 0 21 -6 21 -15 0 -8 7 -15 16 -15 9 0 18 -9 21
-20 4 -15 14 -20 39 -20 27 0 34 -4 34 -20 0 -18 7 -20 56 -20 47 0 57 -3 61
-20 5 -20 14 -20 3613 -20 3599 0 3608 0 3613 20 4 17 14 20 55 20 41 0 51 3
55 20 4 15 14 20 41 20 29 0 36 4 36 20 0 13 7 20 20 20 11 0 20 6 20 14 0 9
15 17 40 21 30 5 40 11 40 26 0 10 7 19 15 19 8 0 15 7 15 15 0 8 8 15 19 15
14 0 21 10 25 35 4 21 13 35 21 35 9 0 15 9 15 21 0 12 8 23 19 26 12 3 21 17
26 39 3 20 12 34 20 34 8 0 15 9 15 20 0 13 7 20 20 20 17 0 20 7 20 40 0 33
3 40 20 40 16 0 20 7 20 35 0 24 5 35 15 35 9 0 15 9 15 21 0 12 8 23 20 26
15 4 20 14 20 39 0 27 4 34 20 34 16 0 20 7 20 36 0 27 5 37 19 41 12 3 21 17
26 39 3 20 12 34 20 34 9 0 15 10 15 25 0 18 5 25 20 25 16 0 20 7 20 35 0 28
4 35 20 35 16 0 20 7 20 35 0 24 5 35 15 35 9 0 15 9 15 21 0 12 8 23 20 26
15 4 20 14 20 39 0 27 4 34 20 34 17 0 20 7 20 40 0 33 4 40 19 40 14 0 21 10
25 35 4 21 13 35 21 35 9 0 15 10 15 25 0 15 6 25 15 25 8 0 17 14 21 35 3 19
12 35 19 35 8 0 16 17 20 40 4 25 12 40 21 40 8 0 14 9 14 20 0 13 7 20 20 20
16 0 20 7 20 35 0 28 4 35 20 35 17 0 20 7 20 40 0 33 3 40 20 40 16 0 20 7
20 35 0 28 4 35 20 35 15 0 20 7 20 25 0 15 6 25 14 25 8 0 17 15 20 35 4 19
13 35 20 35 8 0 17 16 20 35 4 21 13 35 21 35 9 0 15 10 15 25 0 18 5 25 20
25 16 0 20 7 20 36 0 27 5 37 20 41 15 4 20 14 20 39 0 27 4 34 20 34 13 0 20
7 20 20 0 11 6 20 14 20 9 0 17 15 21 40 4 23 12 40 20 40 7 0 16 16 19 35 4
20 13 35 21 35 8 0 16 16 20 40 4 25 12 40 21 40 8 0 14 9 14 20 0 13 7 20 20
20 17 0 20 7 20 40 0 33 3 40 20 40 16 0 20 7 20 35 0 28 4 35 20 35 13 0 20
7 20 20 0 11 7 20 15 20 11 0 15 11 15 36 0 27 5 37 19 41 12 3 21 17 26 39 3
19 12 34 19 34 8 0 16 17 20 40 4 26 11 40 21 40 8 0 15 9 15 20 0 13 7 20 20
20 17 0 20 7 20 40 0 33 3 40 20 40 16 0 20 7 20 34 0 25 5 35 20 39 12 3 20
14 20 26 0 12 6 21 15 21 10 0 15 11 15 35 0 28 4 35 20 35 16 0 20 7 20 36 0
27 5 37 19 41 12 3 21 17 26 39 3 20 12 34 20 34 8 0 15 9 15 20 0 13 7 20 20
20 17 0 20 7 20 40 0 33 3 40 20 40 16 0 20 7 20 35 0 24 5 35 15 35 9 0 15 9
15 21 0 12 8 23 20 26 15 4 20 14 20 39 0 27 4 34 20 34 16 0 20 7 20 36 0 27
5 37 19 41 12 3 21 17 26 39 3 20 12 34 20 34 8 0 15 9 15 20 0 13 7 20 20 20
17 0 20 7 20 40 0 33 3 40 20 40 16 0 20 7 20 35 0 24 5 35 15 35 9 0 15 9 15
21 0 12 8 23 20 26 15 4 20 14 20 39 0 27 4 34 20 34 17 0 20 7 20 40 0 33 3
40 20 40 13 0 20 7 20 20 0 13 7 20 20 20 17 0 20 7 20 40 0 28 4 40 15 40 8
0 17 14 21 35 3 19 12 35 19 35 7 0 16 16 19 35 4 21 13 35 21 35 9 0 15 10
15 25 0 18 5 25 20 25 16 0 20 7 20 35 0 28 4 35 20 35 17 0 20 7 20 40 0 33
3 40 20 40 13 0 20 7 20 20 0 13 7 20 20 20 17 0 20 7 20 40 0 28 4 40 15 40
8 0 17 14 21 35 3 19 12 35 19 35 8 0 16 17 20 40 4 25 12 40 21 40 8 0 14 9
14 20 0 13 7 20 20 20 16 0 20 7 20 36 0 27 5 37 20 41 15 4 20 14 20 39 0 27
4 34 20 34 13 0 20 7 20 20 0 11 6 20 14 20 9 0 17 15 21 40 4 23 12 40 20 40
7 0 16 16 19 35 4 20 13 35 21 35 8 0 16 16 20 40 4 25 12 40 21 40 8 0 14 9
14 20 0 13 7 20 20 20 17 0 20 7 20 40 0 33 3 40 20 40 16 0 20 7 20 35 0 28
4 35 20 35 13 0 20 7 20 20 0 11 7 20 15 20 11 0 15 11 15 36 0 27 5 37 19 41
12 3 21 17 26 39 3 19 12 34 19 34 8 0 16 17 20 40 4 26 11 40 21 40 8 0 15 9
15 20 0 13 7 20 20 20 17 0 20 7 20 40 0 33 3 40 20 40 16 0 20 7 20 34 0 25
5 35 20 39 12 3 20 14 20 26 0 12 6 21 15 21 8 0 17 14 21 35 3 20 12 35 20
35 9 0 14 12 14 36 0 27 5 37 20 41 11 3 20 14 20 24 0 12 7 19 20 19 16 0 20
7 20 35 0 28 4 35 20 35 17 0 20 7 20 40 0 33 3 40 20 40 16 0 20 7 20 35 0
24 5 35 15 35 9 0 15 9 15 21 0 12 8 23 20 26 15 4 20 14 20 39 0 27 4 34 20
34 16 0 20 7 20 36 0 27 5 37 20 41 11 3 20 14 20 24 0 12 7 19 20 19 16 0 20
7 20 36 0 27 5 37 20 41 15 4 20 14 20 39 0 27 4 34 20 34 16 0 20 7 20 35 0
24 5 35 15 35 9 0 15 9 15 21 0 12 8 23 20 26 15 4 20 14 20 39 0 27 4 34 20
34 17 0 20 7 20 40 0 33 3 40 20 40 13 0 20 7 20 20 0 13 7 20 20 20 17 0 20
7 20 40 0 28 4 40 15 40 8 0 17 14 21 35 3 19 12 35 19 35 7 0 16 16 19 35 4
21 13 35 21 35 9 0 15 10 15 25 0 18 5 25 20 25 16 0 20 7 20 35 0 28 4 35 20
35 17 0 20 7 20 40 0 33 3 40 20 40 13 0 20 7 20 20 0 13 7 20 20 20 17 0 20
7 20 40 0 33 3 40 20 40 16 0 20 7 20 35 0 23 5 35 14 35 9 0 17 15 21 40 4
25 12 40 21 40 8 0 14 9 14 20 0 13 7 20 20 20 16 0 20 7 20 36 0 27 5 37 19
41 12 3 21 17 26 39 3 20 12 34 20 34 8 0 15 9 15 20 0 11 6 20 14 20 9 0 17
15 21 40 4 23 12 40 20 40 7 0 16 16 19 35 4 20 13 35 21 35 8 0 16 16 20 40
4 25 12 40 21 40 8 0 14 9 14 20 0 13 7 20 20 20 16 0 20 7 20 36 0 27 5 37
20 41 15 4 20 14 20 39 0 27 4 34 20 34 15 0 20 7 20 25 0 15 6 25 15 25 8 0
17 14 21 35 3 19 12 35 19 35 8 0 16 17 20 40 4 23 12 40 20 40 7 0 15 9 18
20 3 11 12 20 21 20 12 0 16 10 16 35 0 28 4 35 20 35 17 0 20 7 20 40 0 33 3
40 20 40 16 0 20 7 20 34 0 25 5 35 20 39 12 3 20 14 20 26 0 12 6 21 14 21 8
0 17 15 20 35 4 20 13 35 21 35 8 0 16 16 20 40 4 25 12 40 21 40 8 0 14 9 14
20 0 13 7 20 20 20 16 0 20 7 20 35 0 28 4 35 20 35 17 0 20 7 20 40 0 33 3
40 20 40 16 0 20 7 20 35 0 24 5 35 15 35 9 0 15 9 15 21 0 12 8 23 20 26 15
4 20 14 20 39 0 27 4 34 19 34 15 0 21 10 26 40 4 25 12 40 21 40 8 0 14 9 14
20 0 13 7 20 20 20 16 0 20 7 20 36 0 27 5 37 20 41 15 4 20 14 20 39 0 27 4
34 20 34 16 0 20 7 20 35 0 24 5 35 15 35 9 0 15 9 15 21 0 12 8 23 20 26 15
4 20 14 20 39 0 27 4 34 19 34 15 0 21 10 26 40 4 25 12 40 21 40 8 0 14 9 14
20 0 13 7 20 20 20 17 0 20 7 20 40 0 33 3 40 20 40 16 0 20 7 20 35 0 23 5
35 14 35 8 0 17 15 20 35 4 21 13 35 21 35 9 0 15 10 15 25 0 18 5 25 20 25
16 0 20 7 20 35 0 28 4 35 19 35 14 0 20 10 25 40 4 26 11 40 21 40 8 0 15 9
15 20 0 13 7 20 20 20 17 0 20 7 20 40 0 33 3 40 20 40 16 0 20 7 20 35 0 24
5 35 15 35 9 0 15 9 15 21 0 12 8 23 20 26 15 4 20 14 20 39 0 27 4 34 20 34
16 0 20 7 20 36 0 27 5 37 19 41 12 3 21 17 26 39 3 20 12 34 20 34 8 0 15 9
15 20 0 11 6 20 14 20 9 0 17 15 21 40 4 23 12 40 20 40 7 0 16 16 19 35 4 21
13 35 21 35 9 0 15 9 15 21 0 12 8 23 20 26 15 4 20 14 20 39 0 27 4 34 20 34
17 0 20 7 20 40 0 33 3 40 20 40 16 0 20 7 20 35 0 28 4 35 20 35 15 0 20 7
20 25 0 15 6 25 14 25 15 0 26 30 26 73 0 17 5 27 15 27 11 0 15 11 15 38 0
52 10 82 26 82 11 0 14 30 14 155 0 125 -3 155 -14 155 -15 0 -26 43 -26 106
0 31 -4 44 -14 44 -9 0 -17 15 -21 40 -4 25 -12 40 -21 40 -9 0 -14 12 -14 35
0 28 -4 35 -20 35 -13 0 -20 7 -20 20 0 13 -7 20 -20 20 -13 0 -20 7 -20 20 0
11 -6 20 -14 20 -9 0 -17 15 -21 40 -5 30 -11 40 -26 40 -12 0 -19 7 -19 20 0
11 -7 20 -15 20 -8 0 -15 7 -15 16 0 9 -9 18 -20 21 -15 4 -20 14 -20 39 0 27
-4 34 -20 34 -13 0 -20 7 -20 20 0 13 -7 20 -20 20 -13 0 -20 7 -20 20 0 11
-6 20 -14 20 -9 0 -17 15 -21 40 -5 30 -11 40 -26 40 -12 0 -19 7 -19 20 0 11
-7 20 -15 20 -8 0 -17 14 -21 35 -3 20 -12 35 -20 35 -8 0 -14 9 -14 20 0 13
-7 20 -20 20 -13 0 -20 7 -20 20 0 13 -7 20 -20 20 -16 0 -20 7 -20 35 0 28
-4 35 -20 35 -13 0 -20 7 -20 19 0 10 -9 21 -20 24 -12 3 -20 14 -20 26 0 12
-6 21 -15 21 -8 0 -17 14 -21 35 -4 25 -11 35 -25 35 -12 0 -19 7 -19 20 0 11
-6 20 -14 20 -8 0 -17 15 -20 35 -4 21 -13 35 -21 35 -8 0 -15 9 -15 20 0 13
-7 20 -20 20 -13 0 -20 7 -20 19 0 10 -9 21 -20 24 -15 4 -20 14 -20 41 0 29
-4 36 -20 36 -13 0 -20 7 -20 20 0 13 -7 20 -20 20 -13 0 -20 7 -20 20 0 11
-6 20 -14 20 -8 0 -17 15 -20 35 -4 21 -13 35 -21 35 -8 0 -15 9 -15 20 0 13
-7 20 -20 20 -13 0 -20 7 -20 20 0 11 -6 20 -14 20 -9 0 -17 15 -21 40 -5 30
-11 40 -26 40 -10 0 -19 6 -19 14 0 7 -9 16 -20 19 -15 4 -20 14 -20 40 0 26
-5 36 -20 40 -11 3 -20 12 -20 21 0 9 -7 16 -15 16 -8 0 -15 9 -15 20 0 13 -7
20 -20 20 -16 0 -20 7 -20 35 0 28 -4 35 -20 35 -13 0 -20 7 -20 20 0 13 -7
20 -20 20 -13 0 -20 7 -20 20 0 11 -6 20 -14 20 -9 0 -17 15 -21 40 -5 30 -11
40 -26 40 -12 0 -19 7 -19 20 0 11 -7 20 -15 20 -8 0 -15 7 -15 16 0 9 -9 18
-20 21 -15 4 -20 14 -20 39 0 27 -4 34 -20 34 -13 0 -20 7 -20 20 0 13 -7 20
-20 20 -17 0 -20 7 -20 40 0 33 -3 40 -20 40 -13 0 -20 7 -20 20 0 13 -7 20
-20 20 -13 0 -20 7 -20 20 0 11 -6 20 -14 20 -8 0 -17 15 -20 35 -4 21 -13 35
-21 35 -8 0 -15 9 -15 20 0 13 -7 20 -20 20 -13 0 -20 7 -20 20 0 13 -7 20
-20 20 -16 0 -20 7 -20 35 0 28 -4 35 -20 35 -13 0 -20 7 -20 19 0 10 -9 21
-20 24 -12 3 -20 14 -20 26 0 12 -6 21 -15 21 -8 0 -17 14 -21 35 -3 20 -12
35 -20 35 -8 0 -14 9 -14 20 0 13 -7 20 -20 20 -16 0 -20 7 -20 35 0 28 -4 35
-20 35 -13 0 -20 7 -20 20 0 13 -7 20 -20 20 -13 0 -20 7 -20 19 0 10 -9 21
-20 24 -15 4 -20 14 -20 41 0 29 -4 36 -20 36 -13 0 -20 7 -20 20 0 11 -7 20
-15 20 -8 0 -15 7 -15 16 0 9 -9 18 -20 21 -15 4 -20 14 -20 39 0 27 -4 34
-20 34 -13 0 -20 7 -20 20 0 13 -7 20 -20 20 -13 0 -20 7 -20 20 0 11 -6 20
-14 20 -9 0 -17 15 -21 40 -5 30 -11 40 -26 40 -10 0 -19 7 -19 15 0 8 -6 15
-14 15 -9 0 -17 15 -21 40 -4 25 -12 40 -21 40 -8 0 -14 9 -14 20 0 13 -7 20
-20 20 -13 0 -20 7 -20 20 0 13 -7 20 -20 20 -16 0 -20 7 -20 35 0 28 -4 35
-20 35 -13 0 -20 7 -20 19 0 10 -9 21 -20 24 -12 3 -20 14 -20 26 0 12 -6 21
-15 21 -8 0 -17 14 -21 35 -3 20 -12 35 -20 35 -8 0 -14 9 -14 20 0 13 -7 20
-20 20 -13 0 -20 7 -20 20 0 13 -7 20 -20 20 -16 0 -20 7 -20 35 0 28 -4 35
-20 35 -13 0 -20 7 -20 19 0 10 -9 21 -20 24 -15 4 -20 14 -20 41 0 29 -4 36
-20 36 -13 0 -20 7 -20 20 0 13 -7 20 -20 20 -13 0 -20 7 -20 20 0 11 -6 20
-14 20 -8 0 -17 15 -20 35 -4 21 -13 35 -21 35 -8 0 -15 9 -15 20 0 13 -7 20
-20 20 -13 0 -20 7 -20 20 0 13 -7 20 -20 20 -16 0 -20 7 -20 34 0 25 -5 35
-20 39 -11 3 -20 12 -20 21 0 9 -7 16 -15 16 -9 0 -15 9 -15 21 0 12 -8 23
-20 26 -15 4 -20 14 -20 39 0 27 -4 34 -20 34 -13 0 -20 7 -20 20 0 13 -7 20
-20 20 -16 0 -20 7 -20 35 0 28 -4 35 -20 35 -13 0 -20 7 -20 19 0 10 -9 21
-20 24 -11 3 -20 12 -20 21 0 9 -6 16 -14 16 -9 0 -17 15 -21 40 -5 30 -11 40
-26 40 -12 0 -19 7 -19 20 0 11 -7 20 -15 20 -8 0 -15 9 -15 20 0 13 -7 20
-20 20 -16 0 -20 7 -20 35 0 28 -4 35 -20 35 -13 0 -20 7 -20 20 0 13 -7 20
-20 20 -13 0 -20 7 -20 20 0 11 -6 20 -14 20 -9 0 -17 15 -21 40 -5 30 -11 40
-26 40 -12 0 -19 7 -19 20 0 11 -6 20 -14 20 -8 0 -17 15 -20 35 -4 21 -13 35
-21 35 -8 0 -15 9 -15 20 0 13 -7 20 -20 20 -13 0 -20 7 -20 20 0 13 -7 20
-20 20 -16 0 -20 7 -20 35 0 28 -4 35 -20 35 -13 0 -20 7 -20 19 0 10 -9 21
-20 24 -12 3 -20 14 -20 26 0 12 -6 21 -15 21 -8 0 -17 14 -21 35 -3 20 -12
35 -20 35 -8 0 -14 9 -14 20 0 13 -7 20 -20 20 -13 0 -20 7 -20 20 0 11 -7 20
-15 20 -8 0 -17 14 -21 35 -4 25 -11 35 -25 35 -12 0 -19 7 -19 20 0 11 -6 20
-14 20 -9 0 -17 15 -21 40 -5 30 -11 40 -26 40 -12 0 -19 7 -19 20 0 11 -6 20
-14 20 -7 0 -16 9 -19 20 -3 11 -12 20 -21 20 -12 0 -16 10 -16 35 0 28 -4 35
-20 35 -13 0 -20 7 -20 20 0 13 -7 20 -20 20 -13 0 -20 7 -20 20 0 11 -6 20
-14 20 -8 0 -17 15 -20 35 -4 22 -13 35 -22 35 -9 0 -18 9 -21 20 -3 11 -12
20 -19 20 -8 0 -14 9 -14 21 0 12 -8 23 -20 26 -15 4 -20 14 -20 39 0 27 -4
34 -20 34 -13 0 -20 7 -20 20 0 13 -7 20 -20 20 -16 0 -20 7 -20 35 0 28 -4
35 -20 35 -13 0 -20 7 -20 20 0 12 -7 20 -16 20 -9 0 -18 9 -21 20 -3 11 -11
20 -18 20 -8 0 -16 17 -20 40 -4 25 -12 40 -21 40 -8 0 -14 9 -14 20 0 13 -7
20 -20 20 -13 0 -20 7 -20 20 0 13 -7 20 -20 20 -16 0 -20 7 -20 35 0 28 -4
35 -20 35 -13 0 -20 7 -20 20 0 12 -7 20 -16 20 -9 0 -18 9 -21 20 -3 11 -11
20 -18 20 -8 0 -16 17 -20 40 -4 23 -12 40 -20 40 -7 0 -15 9 -18 20 -3 11
-12 20 -21 20 -12 0 -16 10 -16 35 0 28 -4 35 -20 35 -13 0 -20 7 -20 20 0 13
-7 20 -20 20 -13 0 -20 7 -20 20 0 11 -6 20 -14 20 -8 0 -17 15 -20 35 -4 22
-13 35 -22 35 -9 0 -18 9 -21 19 -3 11 -13 21 -24 24 -11 3 -19 14 -19 26 0
12 -6 21 -15 21 -10 0 -15 11 -15 35 0 28 -4 35 -20 35 -13 0 -20 7 -20 20 0
13 -7 20 -20 20 -13 0 -20 7 -20 20 0 11 -7 20 -15 20 -8 0 -17 14 -21 35 -4
25 -11 35 -25 35 -12 0 -19 7 -19 20 0 11 -6 20 -14 20 -9 0 -17 15 -21 40 -4
23 -12 40 -20 40 -7 0 -15 9 -18 20 -3 11 -12 20 -21 20 -9 0 -16 8 -16 20 0
13 -7 20 -20 20 -16 0 -20 7 -20 35 0 28 -4 35 -20 35 -13 0 -20 7 -20 20 0
13 -7 20 -20 20 -13 0 -20 7 -20 20 0 11 -6 20 -14 20 -8 0 -17 15 -20 35 -4
22 -13 35 -22 35 -9 0 -18 9 -21 20 -3 11 -12 20 -19 20 -8 0 -14 10 -14 25 0
18 -5 25 -20 25 -16 0 -20 7 -20 35 0 28 -4 35 -20 35 -13 0 -20 7 -20 20 0
13 -7 20 -20 20 -16 0 -20 7 -20 35 0 28 -4 35 -20 35 -13 0 -20 7 -20 19 0
10 -9 21 -20 24 -12 3 -20 14 -20 26 0 12 -6 21 -15 21 -8 0 -17 14 -21 35 -3
20 -12 35 -20 35 -8 0 -14 9 -14 20 0 13 -7 20 -20 20 -13 0 -20 7 -20 20 0
13 -7 20 -20 20 -16 0 -20 7 -20 35 0 28 -4 35 -20 35 -13 0 -20 7 -20 19 0
10 -9 21 -20 24 -12 3 -20 14 -20 26 0 12 -6 21 -15 21 -10 0 -15 10 -15 31 0
22 -5 32 -20 36 -11 3 -20 14 -20 24 0 12 -7 19 -20 19 -16 0 -20 7 -20 35 0
28 -4 35 -20 35 -13 0 -20 7 -20 20 0 13 -7 20 -20 20 -13 0 -20 7 -20 20 0
11 -6 20 -14 20 -8 0 -17 15 -20 35 -4 22 -13 35 -22 35 -9 0 -18 9 -21 20 -3
11 -12 20 -19 20 -8 0 -14 9 -14 21 0 12 -8 23 -20 26 -15 4 -20 14 -20 39 0
27 -4 34 -20 34 -13 0 -20 7 -20 20 0 13 -7 20 -20 20 -13 0 -20 7 -20 20 0
11 -7 20 -15 20 -8 0 -17 14 -21 35 -4 21 -12 35 -21 35 -8 0 -17 9 -20 20 -3
11 -12 20 -19 20 -8 0 -14 9 -14 21 0 12 -8 23 -20 26 -15 4 -20 14 -20 39 0
27 -4 34 -20 34 -11 0 -20 6 -20 14 0 8 -15 17 -35 20 -21 4 -35 13 -35 21 0
9 -9 15 -21 15 -12 0 -23 8 -26 20 -4 15 -14 20 -39 20 -27 0 -34 4 -34 20 0
17 -7 20 -40 20 -33 0 -40 3 -40 20 0 18 -7 20 -75 20 -68 0 -75 2 -75 20 0
20 -7 20 -3480 20 -3473 0 -3480 0 -3480 -20z m6968 -1366 c12 -4 22 -13 22
-20 0 -10 13 -14 40 -14 33 0 40 -3 40 -20 0 -14 7 -20 21 -20 12 0 23 -8 26
-20 3 -11 12 -20 19 -20 8 0 14 -7 14 -15 0 -8 9 -15 20 -15 15 0 20 -7 20
-25 0 -18 5 -25 20 -25 16 0 20 -7 20 -35 0 -28 4 -35 20 -35 13 0 20 -7 20
-20 0 -13 7 -20 20 -20 13 0 20 -7 20 -20 0 -11 6 -20 14 -20 8 0 17 -15 20
-35 4 -21 13 -35 21 -35 8 0 15 -9 15 -20 0 -13 7 -20 20 -20 15 0 20 -7 20
-25 0 -18 5 -25 20 -25 16 0 20 -7 20 -35 0 -28 4 -35 20 -35 13 0 20 -7 20
-20 0 -13 7 -20 20 -20 16 0 20 -7 20 -35 0 -28 4 -35 20 -35 13 0 20 -7 20
-20 0 -12 7 -20 16 -20 9 0 18 -9 21 -20 3 -11 12 -20 19 -20 10 0 14 -13 14
-40 0 -33 3 -40 20 -40 13 0 20 -7 20 -20 0 -13 7 -20 20 -20 13 0 20 -7 20
-20 0 -13 7 -20 20 -20 16 0 20 -7 20 -35 0 -28 4 -35 20 -35 13 0 20 -7 20
-20 0 -11 7 -20 15 -20 8 0 15 -9 15 -20 0 -13 7 -20 20 -20 16 0 20 -7 20
-35 0 -28 4 -35 20 -35 15 0 20 -7 20 -25 0 -18 5 -25 20 -25 16 0 20 -7 20
-35 0 -28 4 -35 20 -35 13 0 20 -7 20 -20 0 -13 7 -20 20 -20 13 0 20 -7 20
-20 0 -11 7 -20 15 -20 8 0 17 -14 21 -35 4 -21 12 -35 21 -35 8 0 17 -9 20
-20 3 -11 12 -20 19 -20 8 0 14 -8 14 -19 0 -10 9 -21 20 -24 15 -4 20 -14 20
-41 0 -29 4 -36 20 -36 13 0 20 -7 20 -20 0 -13 7 -20 20 -20 13 0 20 -7 20
-20 0 -11 7 -20 15 -20 8 0 17 -14 21 -35 4 -21 12 -35 21 -35 8 0 17 -9 20
-20 3 -11 11 -20 18 -20 8 0 16 -17 20 -40 4 -25 12 -40 21 -40 8 0 14 -6 14
-14 0 -7 9 -16 20 -19 12 -3 20 -14 20 -26 0 -14 6 -21 20 -21 16 0 20 -7 20
-35 0 -28 4 -35 20 -35 13 0 20 -7 20 -20 0 -13 7 -20 20 -20 13 0 20 -7 20
-20 0 -11 6 -20 14 -20 8 0 17 -15 20 -35 4 -21 13 -35 21 -35 8 0 15 -9 15
-20 0 -13 7 -20 20 -20 15 0 20 -7 20 -25 0 -15 6 -25 15 -25 8 0 17 -14 21
-35 4 -25 11 -35 25 -35 12 0 19 -7 19 -20 0 -11 7 -20 15 -20 8 0 17 -14 21
-35 4 -21 12 -35 21 -35 8 0 17 -9 20 -20 3 -11 12 -20 19 -20 8 0 14 -9 14
-20 0 -13 7 -20 20 -20 17 0 20 -7 20 -40 0 -33 3 -40 20 -40 13 0 20 -7 20
-20 0 -13 7 -20 20 -20 13 0 20 -7 20 -20 0 -11 7 -20 15 -20 8 0 17 -14 21
-35 4 -25 11 -35 25 -35 12 0 19 -7 19 -20 0 -11 7 -20 15 -20 8 0 15 -9 15
-20 0 -13 7 -20 20 -20 16 0 20 -7 20 -35 0 -28 4 -35 20 -35 15 0 20 -7 20
-25 0 -18 5 -25 20 -25 16 0 20 -7 20 -35 0 -28 4 -35 20 -35 13 0 20 -7 20
-20 0 -13 7 -20 20 -20 13 0 20 -7 20 -20 0 -11 6 -20 14 -20 8 0 17 -15 20
-35 4 -21 13 -35 21 -35 8 0 15 -9 15 -20 0 -13 7 -20 20 -20 13 0 20 -7 20
-19 0 -10 9 -21 20 -24 15 -4 20 -14 20 -41 0 -29 4 -36 20 -36 13 0 20 -7 20
-20 0 -13 7 -20 20 -20 13 0 20 -7 20 -20 0 -11 6 -20 14 -20 8 0 17 -15 20
-35 4 -21 13 -35 21 -35 8 0 15 -9 15 -20 0 -13 7 -20 20 -20 17 0 20 -7 20
-40 0 -33 3 -40 20 -40 13 0 20 -7 20 -20 0 -13 7 -20 20 -20 13 0 20 -7 20
-20 0 -11 7 -20 15 -20 8 0 17 -14 21 -35 4 -25 11 -35 25 -35 12 0 19 -7 19
-20 0 -11 7 -20 15 -20 8 0 15 -9 15 -20 0 -13 7 -20 20 -20 16 0 20 -7 20
-35 0 -28 4 -35 20 -35 13 0 20 -7 20 -19 0 -10 9 -21 20 -24 12 -3 20 -14 20
-26 0 -12 6 -21 15 -21 8 0 17 -14 21 -35 4 -25 11 -35 25 -35 12 0 19 -7 19
-20 0 -11 7 -20 15 -20 8 0 17 -14 21 -35 3 -20 12 -35 20 -35 8 0 14 -9 14
-20 0 -13 7 -20 20 -20 13 0 20 -7 20 -19 0 -10 9 -21 20 -24 15 -4 20 -14 20
-41 0 -29 4 -36 20 -36 13 0 20 -7 20 -20 0 -13 7 -20 20 -20 13 0 20 -7 20
-20 0 -11 7 -20 15 -20 8 0 17 -14 20 -34 5 -22 14 -36 26 -39 10 -3 19 -12
19 -21 0 -9 7 -16 15 -16 8 0 15 -8 15 -19 0 -10 9 -21 20 -24 14 -4 20 -14
20 -35 0 -21 6 -31 20 -35 12 -3 20 -14 20 -26 0 -14 6 -21 20 -21 16 0 20 -7
20 -35 0 -28 4 -35 20 -35 13 0 20 -7 20 -20 0 -12 7 -20 16 -20 9 0 18 -9 21
-20 3 -11 11 -20 18 -20 7 0 16 -16 19 -35 4 -21 13 -35 21 -35 8 0 15 -9 15
-20 0 -13 7 -20 20 -20 13 0 20 -7 20 -19 0 -10 9 -21 20 -24 15 -4 20 -14 20
-41 0 -29 4 -36 20 -36 13 0 20 -7 20 -20 0 -13 7 -20 20 -20 13 0 20 -7 20
-20 0 -11 7 -20 15 -20 10 0 15 -11 15 -35 0 -28 4 -35 20 -35 13 0 20 -7 20
-20 0 -13 7 -20 20 -20 17 0 20 -7 20 -40 0 -33 3 -40 20 -40 13 0 20 -7 20
-20 0 -13 7 -20 20 -20 13 0 20 -7 20 -20 0 -11 7 -20 15 -20 8 0 17 -14 21
-35 4 -21 12 -35 21 -35 8 0 17 -9 20 -20 3 -11 12 -20 19 -20 8 0 14 -9 14
-20 0 -13 7 -20 20 -20 16 0 20 -7 20 -35 0 -28 4 -35 20 -35 13 0 20 -7 20
-19 0 -10 9 -21 20 -24 12 -3 20 -14 20 -26 0 -12 6 -21 15 -21 8 0 17 -14 21
-35 4 -25 11 -35 25 -35 12 0 19 -7 19 -20 0 -11 6 -20 14 -20 8 0 17 -15 20
-35 4 -21 13 -35 21 -35 8 0 15 -9 15 -20 0 -13 7 -20 20 -20 13 0 20 -7 20
-19 0 -10 9 -21 20 -24 15 -4 20 -14 20 -41 0 -29 4 -36 20 -36 13 0 20 -7 20
-20 0 -13 7 -20 20 -20 13 0 20 -7 20 -20 0 -11 7 -20 15 -20 8 0 17 -14 21
-35 3 -20 12 -35 20 -35 8 0 14 -9 14 -20 0 -13 7 -20 20 -20 13 0 20 -7 20
-20 0 -11 6 -20 14 -20 8 0 17 -15 20 -34 4 -22 13 -36 26 -39 12 -3 20 -14
20 -26 0 -14 6 -21 20 -21 16 0 20 -7 20 -35 0 -25 4 -35 16 -35 9 0 18 -9 21
-20 3 -11 12 -20 19 -20 8 0 14 -9 14 -20 0 -13 7 -20 20 -20 16 0 20 -7 20
-35 0 -28 4 -35 20 -35 13 0 20 -7 20 -20 0 -13 7 -20 20 -20 13 0 20 -7 20
-20 0 -11 6 -20 14 -20 9 0 17 -15 21 -40 5 -30 11 -40 26 -40 12 0 19 -7 19
-20 0 -11 7 -20 15 -20 8 0 15 -7 15 -16 0 -9 9 -18 20 -21 15 -4 20 -14 20
-39 0 -27 4 -34 20 -34 13 0 20 -7 20 -20 0 -13 7 -20 20 -20 17 0 20 -7 20
-40 0 -33 3 -40 20 -40 13 0 20 -7 20 -20 0 -13 7 -20 20 -20 13 0 20 -7 20
-20 0 -11 7 -20 15 -20 8 0 17 -14 21 -35 3 -20 12 -35 20 -35 8 0 14 -9 14
-20 0 -13 7 -20 20 -20 13 0 20 -7 20 -20 0 -13 7 -20 20 -20 16 0 20 -7 20
-35 0 -28 4 -35 20 -35 13 0 20 -7 20 -19 0 -10 9 -21 20 -24 12 -3 20 -14 20
-26 0 -12 6 -21 15 -21 8 0 17 -14 20 -34 5 -22 14 -36 26 -39 10 -3 19 -12
19 -21 0 -9 7 -16 15 -16 10 0 15 -11 15 -35 0 -28 4 -35 20 -35 13 0 20 -7
20 -20 0 -13 7 -20 20 -20 13 0 20 -7 20 -19 0 -10 9 -21 20 -24 15 -4 20 -14
20 -41 0 -29 4 -36 20 -36 13 0 20 -7 20 -20 0 -11 7 -20 15 -20 8 0 15 -7 15
-16 0 -9 9 -18 19 -21 12 -3 21 -17 26 -39 3 -20 12 -34 20 -34 8 0 15 -9 15
-20 0 -13 7 -20 20 -20 13 0 20 -7 20 -20 0 -11 6 -20 14 -20 9 0 17 -15 21
-40 5 -30 11 -40 26 -40 12 0 19 -7 19 -20 0 -11 7 -20 15 -20 8 0 17 -14 21
-35 3 -20 12 -35 20 -35 8 0 14 -9 14 -20 0 -13 7 -20 20 -20 17 0 20 -7 20
-40 0 -33 3 -40 20 -40 19 0 20 -7 20 -155 0 -148 -1 -155 -20 -155 -16 0 -20
-7 -20 -34 0 -25 -5 -35 -20 -39 -12 -3 -20 -14 -20 -26 0 -12 -6 -21 -15 -21
-10 0 -15 -11 -15 -35 0 -28 -4 -35 -19 -35 -14 0 -21 -10 -25 -35 -4 -21 -13
-35 -21 -35 -9 0 -15 -10 -15 -25 0 -18 -5 -25 -20 -25 -16 0 -20 -7 -20 -35
0 -28 -4 -35 -20 -35 -17 0 -20 -7 -20 -40 0 -33 -3 -40 -20 -40 -16 0 -20 -7
-20 -35 0 -24 -5 -35 -15 -35 -9 0 -15 -9 -15 -21 0 -12 -8 -23 -20 -26 -15
-4 -20 -14 -20 -39 0 -27 -4 -34 -20 -34 -16 0 -20 -7 -20 -36 0 -27 -5 -37
-20 -41 -11 -3 -20 -14 -20 -24 0 -12 -7 -19 -20 -19 -16 0 -20 -7 -20 -36 0
-27 -5 -37 -20 -41 -15 -4 -20 -14 -20 -39 0 -22 -5 -34 -14 -34 -8 0 -17 -15
-20 -35 -4 -21 -13 -35 -21 -35 -9 0 -15 -9 -15 -21 0 -12 -8 -23 -20 -26 -15
-4 -20 -14 -20 -39 0 -27 -4 -34 -19 -34 -15 0 -21 -10 -26 -40 -4 -25 -12
-40 -21 -40 -8 0 -14 -9 -14 -20 0 -13 -7 -20 -20 -20 -17 0 -20 -7 -20 -40 0
-33 -3 -40 -20 -40 -16 0 -20 -7 -20 -35 0 -23 -5 -35 -14 -35 -8 0 -17 -15
-20 -35 -4 -21 -13 -35 -21 -35 -9 0 -15 -10 -15 -25 0 -18 -5 -25 -20 -25
-16 0 -20 -7 -20 -35 0 -28 -4 -35 -19 -35 -14 0 -20 -10 -25 -40 -4 -26 -11
-40 -21 -40 -8 0 -15 -9 -15 -20 0 -13 -7 -20 -20 -20 -17 0 -20 -7 -20 -40 0
-27 -4 -40 -14 -40 -8 0 -17 -15 -20 -35 -4 -21 -13 -35 -21 -35 -8 0 -15 -9
-15 -20 0 -13 -7 -20 -20 -20 -17 0 -20 -7 -20 -40 0 -33 -3 -40 -20 -40 -16
0 -20 -7 -20 -35 0 -28 -4 -35 -20 -35 -17 0 -20 -7 -20 -40 0 -33 -3 -40 -20
-40 -13 0 -20 -7 -20 -20 0 -11 -6 -20 -14 -20 -9 0 -17 -15 -21 -40 -4 -23
-12 -40 -20 -40 -7 0 -16 -16 -19 -35 -4 -21 -13 -35 -21 -35 -9 0 -15 -9 -15
-21 0 -12 -8 -23 -20 -26 -15 -4 -20 -14 -20 -39 0 -27 -4 -34 -20 -34 -16 0
-20 -7 -20 -36 0 -27 -5 -37 -20 -41 -15 -4 -20 -14 -20 -39 0 -27 -4 -34 -20
-34 -15 0 -20 -7 -20 -25 0 -15 -6 -25 -15 -25 -8 0 -17 -14 -21 -35 -3 -19
-12 -35 -19 -35 -7 0 -16 -16 -19 -35 -4 -21 -13 -35 -21 -35 -9 0 -15 -9 -15
-21 0 -12 -8 -23 -20 -26 -15 -4 -20 -14 -20 -39 0 -27 -4 -34 -20 -34 -17 0
-20 -7 -20 -40 0 -33 -3 -40 -20 -40 -16 0 -20 -7 -20 -34 0 -25 -5 -35 -20
-39 -12 -3 -20 -14 -20 -26 0 -12 -6 -21 -15 -21 -10 0 -15 -10 -15 -31 0 -22
-5 -32 -19 -36 -12 -3 -21 -17 -26 -39 -3 -20 -12 -34 -20 -34 -9 0 -15 -10
-15 -25 0 -18 -5 -25 -20 -25 -16 0 -20 -7 -20 -35 0 -28 -4 -35 -20 -35 -17
0 -20 -7 -20 -40 0 -33 -3 -40 -20 -40 -16 0 -20 -7 -20 -35 0 -24 -5 -35 -15
-35 -9 0 -15 -9 -15 -21 0 -12 -8 -23 -19 -26 -12 -3 -21 -17 -26 -39 -3 -19
-12 -34 -19 -34 -8 0 -17 -16 -20 -35 -4 -21 -13 -35 -21 -35 -9 0 -15 -10
-15 -25 0 -18 -5 -25 -20 -25 -16 0 -20 -7 -20 -35 0 -28 -4 -35 -20 -35 -17
0 -20 -7 -20 -40 0 -33 -3 -40 -20 -40 -13 0 -20 -7 -20 -20 0 -11 -7 -20 -15
-20 -11 0 -15 -11 -15 -36 0 -27 -5 -37 -20 -41 -15 -4 -20 -14 -20 -39 0 -27
-4 -34 -19 -34 -15 0 -21 -10 -26 -40 -4 -25 -12 -40 -21 -40 -8 0 -14 -9 -14
-20 0 -13 -7 -20 -20 -20 -17 0 -20 -7 -20 -40 0 -33 -3 -40 -20 -40 -16 0
-20 -7 -20 -35 0 -24 -5 -35 -15 -35 -8 0 -15 -9 -15 -20 0 -13 -7 -20 -20
-20 -17 0 -20 -7 -20 -40 0 -33 -3 -40 -20 -40 -16 0 -20 -7 -20 -35 0 -28 -4
-35 -19 -35 -14 0 -20 -10 -25 -40 -4 -26 -11 -40 -21 -40 -8 0 -15 -9 -15
-20 0 -13 -7 -20 -20 -20 -17 0 -20 -7 -20 -40 0 -27 -4 -40 -14 -40 -8 0 -17
-15 -20 -35 -4 -21 -13 -35 -21 -35 -9 0 -15 -9 -15 -21 0 -12 -8 -23 -20 -26
-15 -4 -20 -14 -20 -39 0 -27 -4 -34 -20 -34 -16 0 -20 -7 -20 -36 0 -27 -5
-37 -20 -41 -15 -4 -20 -14 -20 -39 0 -27 -4 -34 -20 -34 -13 0 -20 -7 -20
-20 0 -11 -6 -20 -14 -20 -9 0 -17 -15 -21 -40 -4 -23 -12 -40 -20 -40 -7 0
-16 -16 -19 -35 -4 -21 -13 -35 -21 -35 -9 0 -15 -9 -15 -21 0 -12 -8 -23 -20
-26 -15 -4 -20 -14 -20 -39 0 -27 -4 -34 -20 -34 -17 0 -20 -7 -20 -40 0 -33
-3 -40 -20 -40 -16 0 -20 -7 -20 -35 0 -28 -4 -35 -20 -35 -13 0 -20 -7 -20
-20 0 -11 -6 -20 -14 -20 -9 0 -17 -15 -21 -40 -4 -23 -12 -40 -20 -40 -7 0
-16 -16 -19 -35 -4 -21 -13 -35 -21 -35 -9 0 -15 -10 -15 -25 0 -18 -5 -25
-20 -25 -16 0 -20 -7 -20 -35 0 -28 -4 -35 -20 -35 -17 0 -20 -7 -20 -40 0
-33 -3 -40 -20 -40 -13 0 -20 -7 -20 -20 0 -11 -6 -20 -14 -20 -9 0 -17 -15
-21 -40 -4 -24 -12 -40 -20 -40 -8 0 -17 -15 -21 -35 -3 -19 -12 -35 -19 -35
-7 0 -16 -16 -19 -35 -4 -21 -13 -35 -21 -35 -9 0 -15 -10 -15 -25 0 -18 -5
-25 -20 -25 -16 0 -20 -7 -20 -35 0 -28 -4 -35 -20 -35 -17 0 -20 -7 -20 -40
0 -33 -3 -40 -20 -40 -13 0 -20 -7 -20 -20 0 -11 -7 -20 -15 -20 -11 0 -15
-11 -15 -36 0 -27 -5 -37 -19 -41 -12 -3 -21 -17 -26 -39 -3 -19 -12 -34 -19
-34 -8 0 -17 -16 -20 -35 -4 -21 -13 -35 -21 -35 -9 0 -15 -10 -15 -25 0 -18
-5 -25 -20 -25 -16 0 -20 -7 -20 -36 0 -27 -5 -37 -20 -41 -15 -4 -20 -14 -20
-39 0 -27 -4 -34 -20 -34 -13 0 -20 -7 -20 -20 0 -11 -7 -20 -15 -20 -11 0
-15 -11 -15 -36 0 -27 -5 -37 -20 -41 -15 -4 -20 -14 -20 -39 0 -27 -4 -34
-19 -34 -14 0 -20 -10 -25 -40 -4 -26 -11 -40 -21 -40 -8 0 -15 -9 -15 -20 0
-13 -7 -20 -20 -20 -17 0 -20 -7 -20 -40 0 -33 -3 -40 -20 -40 -16 0 -20 -7
-20 -35 0 -24 -5 -35 -15 -35 -8 0 -15 -9 -15 -20 0 -13 -7 -20 -20 -20 -16 0
-20 -7 -20 -36 0 -27 -5 -37 -20 -41 -15 -4 -20 -14 -20 -39 0 -27 -4 -34 -19
-34 -14 0 -20 -10 -25 -40 -4 -26 -11 -40 -21 -40 -8 0 -15 -9 -15 -20 0 -13
-7 -20 -20 -20 -17 0 -20 -7 -20 -40 0 -33 -3 -40 -20 -40 -16 0 -20 -7 -20
-35 0 -24 -5 -35 -15 -35 -9 0 -15 -9 -15 -21 0 -12 -8 -23 -20 -26 -15 -4
-20 -14 -20 -39 0 -27 -4 -34 -20 -34 -16 0 -20 -7 -20 -36 0 -27 -5 -37 -20
-41 -11 -3 -20 -14 -20 -24 0 -12 -7 -19 -20 -19 -16 0 -20 -7 -20 -35 0 -23
-5 -35 -14 -35 -9 0 -17 -15 -21 -40 -4 -23 -12 -40 -20 -40 -7 0 -16 -16 -19
-35 -4 -21 -13 -35 -21 -35 -9 0 -15 -9 -15 -21 0 -12 -8 -23 -20 -26 -15 -4
-20 -14 -20 -39 0 -27 -4 -34 -20 -34 -16 0 -20 -7 -20 -36 0 -27 -5 -37 -20
-41 -11 -3 -20 -14 -20 -24 0 -12 -7 -19 -20 -19 -16 0 -20 -7 -20 -35 0 -23
-5 -35 -14 -35 -9 0 -17 -15 -21 -40 -4 -23 -12 -40 -20 -40 -7 0 -16 -16 -19
-35 -4 -21 -13 -35 -21 -35 -9 0 -15 -10 -15 -25 0 -18 -5 -25 -20 -25 -16 0
-20 -7 -20 -35 0 -28 -4 -35 -20 -35 -17 0 -20 -7 -20 -40 0 -33 -3 -40 -20
-40 -13 0 -20 -7 -20 -20 0 -11 -6 -20 -14 -20 -9 0 -17 -15 -21 -40 -4 -24
-12 -40 -20 -40 -8 0 -17 -15 -21 -35 -3 -19 -12 -35 -19 -35 -7 0 -16 -16
-19 -35 -4 -21 -13 -35 -21 -35 -9 0 -15 -10 -15 -25 0 -18 -5 -25 -20 -25
-16 0 -20 -7 -20 -35 0 -28 -4 -35 -20 -35 -17 0 -20 -7 -20 -40 0 -33 -3 -40
-20 -40 -13 0 -20 -7 -20 -20 0 -11 -6 -20 -14 -20 -9 0 -17 -15 -21 -40 -4
-23 -12 -40 -20 -40 -7 0 -16 -16 -19 -35 -4 -20 -13 -35 -21 -35 -8 0 -16
-16 -20 -40 -4 -25 -12 -40 -21 -40 -8 0 -14 -9 -14 -20 0 -13 -7 -20 -20 -20
-16 0 -20 -7 -20 -36 0 -27 -5 -37 -20 -41 -15 -4 -20 -14 -20 -39 0 -27 -4
-34 -20 -34 -13 0 -20 -7 -20 -20 0 -11 -6 -20 -14 -20 -9 0 -17 -15 -21 -40
-4 -25 -12 -40 -21 -40 -9 0 -14 -12 -14 -35 0 -28 -4 -35 -20 -35 -14 0 -20
-7 -20 -21 0 -12 -8 -23 -20 -26 -15 -4 -20 -14 -20 -39 0 -27 -4 -34 -20 -34
-13 0 -20 -7 -20 -20 0 -13 -7 -20 -20 -20 -11 0 -20 -7 -20 -15 0 -10 -14
-17 -40 -21 -22 -4 -40 -12 -40 -19 0 -20 -35 -25 -173 -25 -121 0 -129 1
-134 20 -4 15 -14 20 -39 20 -27 0 -34 4 -34 20 0 13 -7 20 -20 20 -13 0 -20
7 -20 20 0 13 -7 20 -20 20 -13 0 -20 7 -20 20 0 13 -7 20 -20 20 -13 0 -20 7
-20 20 0 11 -7 20 -15 20 -8 0 -17 14 -20 34 -5 22 -14 36 -26 39 -10 3 -19
12 -19 21 0 9 -6 16 -14 16 -9 0 -17 15 -21 40 -4 25 -12 40 -21 40 -8 0 -14
9 -14 20 0 13 -7 20 -20 20 -13 0 -20 7 -20 20 0 13 -7 20 -20 20 -16 0 -20 7
-20 35 0 28 -4 35 -20 35 -13 0 -20 7 -20 20 0 13 -7 20 -20 20 -13 0 -20 7
-20 20 0 11 -6 20 -14 20 -8 0 -17 15 -20 35 -4 21 -13 35 -21 35 -9 0 -15 10
-15 25 0 18 -5 25 -20 25 -13 0 -20 7 -20 20 0 11 -7 20 -15 20 -8 0 -17 14
-21 35 -4 25 -11 35 -25 35 -12 0 -19 7 -19 19 0 10 -9 21 -20 24 -14 4 -20
14 -20 35 0 21 -6 31 -20 35 -11 3 -20 12 -20 21 0 9 -7 16 -15 16 -8 0 -15 9
-15 20 0 13 -7 20 -20 20 -17 0 -20 7 -20 40 0 33 -3 40 -20 40 -13 0 -20 7
-20 20 0 13 -7 20 -20 20 -13 0 -20 7 -20 20 0 11 -7 20 -15 20 -8 0 -17 14
-21 35 -4 25 -11 35 -25 35 -12 0 -19 7 -19 20 0 11 -7 20 -15 20 -9 0 -15 9
-15 21 0 12 -8 23 -20 26 -15 4 -20 14 -20 39 0 27 -4 34 -20 34 -13 0 -20 7
-20 20 0 13 -7 20 -20 20 -16 0 -20 7 -20 35 0 28 -4 35 -20 35 -13 0 -20 7
-20 20 0 13 -7 20 -20 20 -13 0 -20 7 -20 20 0 11 -6 20 -14 20 -8 0 -17 15
-20 35 -4 21 -13 35 -21 35 -8 0 -15 9 -15 20 0 13 -7 20 -20 20 -15 0 -20 7
-20 25 0 18 -5 25 -20 25 -16 0 -20 7 -20 35 0 28 -4 35 -20 35 -13 0 -20 7
-20 20 0 13 -7 20 -20 20 -13 0 -20 7 -20 20 0 11 -7 20 -15 20 -8 0 -17 14
-21 35 -3 20 -12 35 -20 35 -8 0 -14 9 -14 20 0 13 -7 20 -20 20 -17 0 -20 7
-20 40 0 33 -3 40 -20 40 -13 0 -20 7 -20 20 0 13 -7 20 -20 20 -13 0 -20 7
-20 20 0 11 -7 20 -15 20 -8 0 -17 14 -21 35 -4 25 -11 35 -25 35 -12 0 -19 7
-19 19 0 10 -9 21 -20 24 -11 3 -20 12 -20 21 0 9 -6 16 -14 16 -8 0 -17 15
-20 35 -4 21 -13 35 -21 35 -9 0 -15 10 -15 25 0 18 -5 25 -20 25 -13 0 -20 7
-20 20 0 11 -7 20 -15 20 -8 0 -17 14 -21 35 -4 25 -11 35 -25 35 -12 0 -19 7
-19 20 0 11 -6 20 -14 20 -8 0 -17 15 -20 35 -4 21 -13 35 -21 35 -8 0 -15 9
-15 20 0 13 -7 20 -20 20 -15 0 -20 7 -20 25 0 18 -5 25 -20 25 -16 0 -20 7
-20 35 0 28 -4 35 -20 35 -13 0 -20 7 -20 20 0 13 -7 20 -20 20 -13 0 -20 7
-20 20 0 11 -7 20 -15 20 -8 0 -17 14 -20 34 -5 22 -14 36 -26 39 -10 3 -19
12 -19 21 0 9 -7 16 -15 16 -9 0 -15 9 -15 25 0 18 -5 25 -20 25 -16 0 -20 7
-20 35 0 28 -4 35 -20 35 -13 0 -20 7 -20 20 0 13 -7 20 -20 20 -16 0 -20 7
-20 35 0 28 -4 35 -20 35 -13 0 -20 7 -20 19 0 10 -9 21 -20 24 -11 3 -20 12
-20 21 0 9 -6 16 -14 16 -8 0 -17 15 -20 35 -4 21 -13 35 -21 35 -8 0 -15 9
-15 20 0 13 -7 20 -20 20 -15 0 -20 7 -20 25 0 18 -5 25 -20 25 -16 0 -20 7
-20 35 0 28 -4 35 -20 35 -17 0 -20 7 -20 40 0 27 -4 40 -14 40 -18 0 -26 31
-26 106 0 80 9 124 26 124 10 0 14 13 14 40 0 33 3 40 20 40 16 0 20 7 20 35
0 28 4 35 20 35 17 0 20 7 20 40 0 33 3 40 20 40 13 0 20 7 20 20 0 11 7 20
15 20 10 0 17 14 21 40 4 22 12 40 19 40 7 0 16 16 19 35 4 21 13 35 21 35 9
0 15 9 15 21 0 12 8 23 20 26 15 4 20 14 20 39 0 27 4 34 20 34 16 0 20 7 20
36 0 27 5 37 20 41 11 3 20 14 20 24 0 12 7 19 20 19 16 0 20 7 20 35 0 23 5
35 14 35 9 0 17 15 21 40 4 23 12 40 20 40 7 0 16 16 19 35 4 21 13 35 21 35
9 0 15 9 15 21 0 12 8 23 20 26 15 4 20 14 20 39 0 27 4 34 20 34 17 0 20 7
20 40 0 33 3 40 20 40 13 0 20 7 20 20 0 11 6 20 14 20 8 0 17 15 20 35 4 20
13 35 21 35 8 0 16 16 20 40 4 23 12 40 20 40 7 0 16 16 19 35 4 21 13 35 21
35 9 0 15 10 15 25 0 18 5 25 20 25 16 0 20 7 20 35 0 28 4 35 20 35 17 0 20
7 20 40 0 33 3 40 20 40 13 0 20 7 20 20 0 11 7 20 15 20 11 0 15 11 15 36 0
27 5 37 19 41 12 3 21 17 26 39 3 19 12 34 19 34 8 0 17 16 20 35 4 21 13 35
21 35 9 0 15 10 15 25 0 18 5 25 20 25 16 0 20 7 20 35 0 28 4 35 20 35 17 0
20 7 20 40 0 33 3 40 20 40 13 0 20 7 20 20 0 11 7 20 15 20 11 0 15 11 15 36
0 27 5 37 20 41 15 4 20 14 20 39 0 27 4 34 19 34 14 0 21 10 25 35 4 21 13
35 21 35 9 0 15 10 15 25 0 18 5 25 20 25 17 0 20 7 20 40 0 33 3 40 20 40 16
0 20 7 20 35 0 24 5 35 15 35 8 0 15 9 15 20 0 13 7 20 20 20 16 0 20 7 20 36
0 27 5 37 20 41 15 4 20 14 20 39 0 27 4 34 19 34 14 0 20 10 25 40 4 26 11
40 21 40 8 0 15 9 15 20 0 13 7 20 20 20 17 0 20 7 20 40 0 33 3 40 20 40 16
0 20 7 20 35 0 24 5 35 15 35 8 0 15 9 15 20 0 13 7 20 20 20 17 0 20 7 20 40
0 33 3 40 20 40 16 0 20 7 20 35 0 28 4 35 20 35 15 0 20 7 20 25 0 18 5 25
20 25 16 0 20 7 20 35 0 24 5 35 15 35 10 0 17 14 21 40 4 23 12 40 20 40 7 0
16 16 20 35 3 20 12 35 20 35 8 0 14 9 14 21 0 12 8 23 20 26 15 4 20 14 20
39 0 27 4 34 20 34 16 0 20 7 20 35 0 28 4 35 20 35 15 0 20 7 20 25 0 18 5
25 20 25 16 0 20 7 20 35 0 23 5 35 14 35 9 0 17 15 21 40 4 23 12 40 20 40 7
0 16 16 19 35 4 21 13 35 21 35 9 0 15 9 15 21 0 12 8 23 20 26 15 4 20 14 20
39 0 27 4 34 20 34 16 0 20 7 20 36 0 27 5 37 20 41 11 3 20 14 20 24 0 11 6
19 14 19 9 0 17 15 21 40 4 24 12 40 20 40 8 0 17 15 21 35 3 19 12 35 19 35
7 0 16 16 19 35 4 21 13 35 21 35 9 0 15 10 15 25 0 18 5 25 20 25 16 0 20 7
20 35 0 28 4 35 20 35 16 0 20 7 20 35 0 28 4 35 20 35 15 0 20 7 20 25 0 15
6 25 14 25 9 0 17 15 21 40 4 23 12 40 20 40 7 0 16 16 19 35 4 19 13 35 20
35 8 0 17 16 20 35 4 21 13 35 21 35 9 0 15 10 15 25 0 18 5 25 20 25 16 0 20
7 20 35 0 28 4 35 20 35 17 0 20 7 20 40 0 33 3 40 20 40 13 0 20 7 20 20 0
11 6 20 14 20 9 0 17 15 21 40 4 25 12 40 21 40 9 0 14 12 14 35 0 28 4 35 20
35 13 0 20 7 20 20 0 13 7 20 20 20 17 0 20 7 20 40 0 33 3 40 20 40 16 0 20
7 20 34 0 25 5 35 20 39 15 4 20 14 20 41 0 25 4 36 15 36 8 0 15 9 15 20 0
13 7 20 20 20 17 0 20 7 20 44 0 63 11 106 26 106 10 0 14 13 14 40 0 27 -4
40 -14 40 -14 0 -26 42 -26 91 0 18 -5 29 -14 29 -8 0 -17 15 -20 35 -4 21
-13 35 -21 35 -8 0 -15 9 -15 20 0 13 -7 20 -20 20 -16 0 -20 7 -20 35 0 28
-4 35 -20 35 -13 0 -20 7 -20 19 0 10 -9 21 -20 24 -12 3 -20 14 -20 26 0 12
-6 21 -15 21 -8 0 -17 14 -21 35 -4 25 -11 35 -25 35 -12 0 -19 7 -19 20 0 11
-6 20 -14 20 -8 0 -17 15 -20 35 -4 21 -13 35 -21 35 -8 0 -15 9 -15 20 0 13
-7 20 -20 20 -13 0 -20 7 -20 19 0 10 -9 21 -20 24 -15 4 -20 14 -20 41 0 29
-4 36 -20 36 -13 0 -20 7 -20 20 0 13 -7 20 -20 20 -13 0 -20 7 -20 20 0 11
-7 20 -15 20 -8 0 -17 14 -21 35 -3 20 -12 35 -20 35 -8 0 -14 9 -14 20 0 13
-7 20 -20 20 -13 0 -20 7 -20 20 0 11 -6 20 -14 20 -8 0 -17 15 -20 35 -5 26
-12 35 -26 35 -15 0 -20 7 -20 25 0 18 -5 25 -20 25 -16 0 -20 7 -20 34 0 25
-5 35 -20 39 -11 3 -20 12 -20 21 0 9 -7 16 -15 16 -8 0 -15 9 -15 20 0 13 -7
20 -20 20 -16 0 -20 7 -20 35 0 28 -4 35 -20 35 -13 0 -20 7 -20 20 0 13 -7
20 -20 20 -13 0 -20 7 -20 20 0 11 -6 20 -14 20 -9 0 -17 15 -21 40 -5 30 -11
40 -26 40 -12 0 -19 7 -19 20 0 11 -7 20 -15 20 -8 0 -15 7 -15 16 0 9 -9 18
-20 21 -15 4 -20 14 -20 39 0 27 -4 34 -20 34 -13 0 -20 7 -20 20 0 13 -7 20
-20 20 -17 0 -20 7 -20 40 0 33 -3 40 -20 40 -13 0 -20 7 -20 20 0 13 -7 20
-20 20 -13 0 -20 7 -20 20 0 11 -7 20 -15 20 -8 0 -17 14 -21 35 -3 20 -12 35
-20 35 -8 0 -14 9 -14 20 0 13 -7 20 -20 20 -13 0 -20 7 -20 20 0 13 -7 20
-20 20 -16 0 -20 7 -20 35 0 28 -4 35 -20 35 -13 0 -20 7 -20 19 0 10 -9 21
-20 24 -12 3 -20 14 -20 26 0 12 -6 21 -15 21 -8 0 -17 14 -21 35 -3 20 -12
35 -20 35 -8 0 -14 9 -14 20 0 13 -7 20 -20 20 -16 0 -20 7 -20 35 0 28 -4 35
-20 35 -13 0 -20 7 -20 20 0 13 -7 20 -20 20 -13 0 -20 7 -20 20 0 11 -6 20
-14 20 -9 0 -17 15 -21 40 -5 30 -11 40 -26 40 -12 0 -19 7 -19 20 0 13 -7 20
-20 20 -13 0 -20 7 -20 20 0 11 -6 20 -14 20 -8 0 -17 15 -20 35 -4 21 -13 35
-21 35 -8 0 -15 9 -15 20 0 13 -7 20 -20 20 -13 0 -20 7 -20 20 0 11 -6 20
-14 20 -9 0 -17 15 -21 40 -5 30 -11 40 -26 40 -12 0 -19 7 -19 20 0 11 -7 20
-15 20 -8 0 -17 14 -21 35 -3 20 -12 35 -20 35 -8 0 -14 9 -14 20 0 13 -7 20
-20 20 -13 0 -20 7 -20 20 0 13 -7 20 -20 20 -16 0 -20 7 -20 35 0 28 -4 35
-20 35 -13 0 -20 7 -20 20 0 12 -7 20 -16 20 -9 0 -18 9 -21 20 -3 11 -11 20
-18 20 -8 0 -16 17 -20 40 -5 30 -11 40 -26 40 -12 0 -19 7 -19 20 0 11 -7 20
-15 20 -8 0 -15 9 -15 20 0 13 -7 20 -20 20 -16 0 -20 7 -20 35 0 28 -4 35
-20 35 -13 0 -20 7 -20 19 0 10 -9 21 -20 24 -15 4 -20 14 -20 41 0 29 -4 36
-20 36 -13 0 -20 7 -20 20 0 13 -7 20 -20 20 -13 0 -20 7 -20 20 0 11 -6 20
-14 20 -8 0 -17 15 -20 35 -4 21 -13 35 -21 35 -8 0 -15 9 -15 20 0 13 -7 20
-20 20 -13 0 -20 7 -20 20 0 13 -7 20 -20 20 -16 0 -20 7 -20 35 0 25 -4 35
-16 35 -9 0 -18 9 -21 19 -3 11 -13 21 -24 24 -11 3 -19 14 -19 26 0 12 -6 21
-15 21 -8 0 -17 14 -21 35 -3 20 -12 35 -20 35 -8 0 -14 9 -14 20 0 13 -7 20
-20 20 -16 0 -20 7 -20 35 0 28 -4 35 -20 35 -13 0 -20 7 -20 20 0 13 -7 20
-20 20 -13 0 -20 7 -20 20 0 11 -6 20 -14 20 -9 0 -17 15 -21 40 -5 30 -11 40
-26 40 -12 0 -19 7 -19 20 0 11 -7 20 -15 20 -8 0 -15 7 -15 16 0 9 -9 18 -20
21 -15 4 -20 14 -20 39 0 27 -4 34 -20 34 -13 0 -20 7 -20 20 0 13 -7 20 -20
20 -17 0 -20 7 -20 40 0 33 -3 40 -20 40 -16 0 -20 7 -20 34 0 25 -5 35 -20
39 -18 5 -20 14 -20 90 0 102 8 147 26 147 9 0 14 12 14 36 0 27 5 37 20 41
15 4 20 14 20 39 0 27 4 34 20 34 13 0 20 7 20 20 0 13 7 20 20 20 17 0 20 7
20 40 0 28 4 40 15 40 8 0 17 14 21 35 3 19 12 35 19 35 8 0 16 17 20 40 4 25
12 40 21 40 8 0 14 9 14 20 0 13 7 20 20 20 17 0 20 7 20 40 0 33 3 40 20 40
16 0 20 7 20 35 0 28 4 35 20 35 17 0 20 7 20 40 0 33 3 40 20 40 13 0 20 7
20 20 0 11 6 20 14 20 9 0 17 15 21 40 4 23 12 40 20 40 7 0 16 16 19 35 4 20
13 35 21 35 8 0 16 16 20 40 4 25 12 40 21 40 8 0 14 9 14 20 0 13 7 20 20 20
17 0 20 7 20 40 0 33 3 40 20 40 16 0 20 7 20 35 0 25 4 35 16 35 9 0 18 9 21
20 3 11 12 20 19 20 9 0 14 12 14 36 0 27 5 37 20 41 15 4 20 14 20 40 0 26 5
36 20 40 15 4 20 14 20 39 0 27 4 34 20 34 13 0 20 7 20 20 0 13 7 20 20 20
17 0 20 7 20 40 0 28 4 40 15 40 8 0 17 14 21 35 3 19 12 35 19 35 8 0 16 17
20 40 4 25 12 40 21 40 8 0 14 9 14 20 0 13 7 20 20 20 17 0 20 7 20 40 0 33
3 40 20 40 16 0 20 7 20 35 0 28 4 35 20 35 16 0 20 7 20 36 0 27 5 37 20 41
11 3 20 14 20 24 0 11 6 19 14 19 9 0 17 15 21 40 4 23 12 40 20 40 7 0 16 16
19 35 4 19 13 35 20 35 8 0 17 16 20 35 4 21 13 35 21 35 9 0 15 10 15 25 0
18 5 25 20 25 16 0 20 7 20 35 0 28 4 35 20 35 17 0 20 7 20 40 0 33 3 40 20
40 16 0 20 7 20 35 0 24 5 35 15 35 9 0 15 9 15 21 0 12 8 23 20 26 15 4 20
14 20 39 0 27 4 34 19 34 15 0 21 10 26 40 4 25 12 40 21 40 8 0 14 9 14 20 0
13 7 20 20 20 17 0 20 7 20 40 0 33 3 40 20 40 16 0 20 7 20 34 0 25 5 35 20
39 15 4 20 14 20 36 0 21 5 31 15 31 9 0 15 9 15 25 0 18 5 25 20 25 16 0 20
7 20 36 0 27 5 37 20 41 15 4 20 14 20 39 0 27 4 34 19 34 14 0 21 10 25 35 4
21 13 35 21 35 9 0 15 10 15 25 0 15 6 25 15 25 8 0 17 14 21 35 3 19 12 35
19 35 8 0 16 17 20 40 4 23 12 40 20 40 7 0 16 16 19 35 4 21 13 35 21 35 9 0
15 10 15 25 0 18 5 25 20 25 16 0 20 7 20 35 0 28 4 35 20 35 17 0 20 7 20 40
0 33 3 40 20 40 16 0 20 7 20 35 0 24 5 35 15 35 9 0 15 9 15 21 0 12 8 23 20
26 15 4 20 14 20 39 0 27 4 34 19 34 15 0 21 10 26 40 4 25 12 40 21 40 8 0
14 9 14 20 0 13 7 20 20 20 16 0 20 7 20 36 0 27 5 37 20 41 15 4 20 14 20 39
0 27 4 34 20 34 17 0 20 7 20 40 0 29 4 40 15 40 8 0 15 7 15 16 0 9 9 18 20
21 15 4 20 14 20 39 0 27 4 34 20 34 13 0 20 7 20 20 0 13 7 20 20 20 13 0 20
7 20 20 0 13 7 20 20 20 11 0 20 6 20 14 0 13 41 26 85 26 14 0 25 7 28 20 5
18 13 20 94 20 48 0 98 -3 111 -6z m-3928 -5129 c0 -10 10 -15 33 -15 47 0 77
-10 77 -26 0 -8 9 -14 20 -14 13 0 20 -7 20 -20 0 -13 7 -20 20 -20 13 0 20
-7 20 -20 0 -11 6 -20 14 -20 9 0 17 -15 21 -40 5 -30 11 -40 26 -40 12 0 19
-7 19 -20 0 -13 7 -20 20 -20 16 0 20 -7 20 -34 0 -25 5 -35 20 -39 11 -3 20
-12 20 -21 0 -9 7 -16 15 -16 8 0 15 -9 15 -20 0 -13 7 -20 20 -20 16 0 20 -7
20 -35 0 -28 4 -35 20 -35 13 0 20 -7 20 -19 0 -10 9 -21 20 -24 11 -3 20 -12
20 -21 0 -9 6 -16 14 -16 9 0 17 -15 21 -40 5 -30 11 -40 26 -40 12 0 19 -7
19 -20 0 -11 7 -20 15 -20 8 0 15 -9 15 -20 0 -13 7 -20 20 -20 16 0 20 -7 20
-35 0 -28 4 -35 20 -35 13 0 20 -7 20 -20 0 -13 7 -20 20 -20 17 0 20 -7 20
-40 0 -33 3 -40 20 -40 13 0 20 -7 20 -20 0 -13 7 -20 20 -20 13 0 20 -7 20
-20 0 -11 7 -20 15 -20 8 0 17 -14 21 -35 3 -20 12 -35 20 -35 8 0 14 -9 14
-20 0 -13 7 -20 20 -20 13 0 20 -7 20 -20 0 -11 6 -20 14 -20 8 0 17 -15 20
-35 5 -26 12 -35 26 -35 13 0 20 -7 20 -19 0 -10 9 -21 20 -24 15 -4 20 -14
20 -41 0 -29 4 -36 20 -36 13 0 20 -7 20 -20 0 -11 7 -20 15 -20 8 0 15 -9 15
-20 0 -13 7 -20 20 -20 16 0 20 -7 20 -35 0 -28 4 -35 20 -35 13 0 20 -7 20
-20 0 -13 7 -20 20 -20 13 0 20 -7 20 -20 0 -11 6 -20 14 -20 9 0 17 -15 21
-40 5 -30 11 -40 26 -40 12 0 19 -7 19 -20 0 -11 7 -20 15 -20 8 0 15 -7 15
-16 0 -9 9 -18 20 -21 15 -4 20 -14 20 -39 0 -27 4 -34 20 -34 13 0 20 -7 20
-20 0 -13 7 -20 20 -20 17 0 20 -7 20 -40 0 -33 3 -40 20 -40 13 0 20 -7 20
-20 0 -13 7 -20 20 -20 13 0 20 -7 20 -20 0 -11 7 -20 15 -20 8 0 17 -14 21
-35 3 -20 12 -35 20 -35 8 0 14 -9 14 -20 0 -13 7 -20 20 -20 13 0 20 -7 20
-20 0 -13 7 -20 20 -20 16 0 20 -7 20 -35 0 -28 4 -35 20 -35 13 0 20 -7 20
-19 0 -10 9 -21 20 -24 12 -3 20 -14 20 -26 0 -12 6 -21 15 -21 8 0 17 -14 21
-35 4 -25 11 -35 25 -35 12 0 19 -7 19 -20 0 -11 6 -20 14 -20 8 0 17 -15 20
-35 4 -21 13 -35 21 -35 8 0 15 -9 15 -20 0 -13 7 -20 20 -20 13 0 20 -7 20
-19 0 -10 9 -21 20 -24 15 -4 20 -14 20 -41 0 -29 4 -36 20 -36 13 0 20 -7 20
-20 0 -13 7 -20 20 -20 13 0 20 -7 20 -20 0 -11 6 -20 14 -20 8 0 17 -15 20
-35 4 -21 13 -35 21 -35 8 0 15 -9 15 -20 0 -13 7 -20 20 -20 13 0 20 -7 20
-20 0 -11 6 -20 14 -20 9 0 17 -15 21 -40 5 -30 11 -40 26 -40 10 0 19 -6 19
-14 0 -7 9 -16 20 -19 15 -4 20 -14 20 -41 0 -26 4 -36 16 -36 9 0 18 -9 21
-20 3 -11 12 -20 19 -20 8 0 14 -9 14 -20 0 -13 7 -20 20 -20 16 0 20 -7 20
-35 0 -28 4 -35 20 -35 13 0 20 -7 20 -20 0 -13 7 -20 20 -20 13 0 20 -7 20
-20 0 -11 6 -20 14 -20 9 0 17 -15 21 -40 5 -30 11 -40 26 -40 12 0 19 -7 19
-20 0 -11 6 -20 14 -20 7 0 16 -9 19 -20 3 -11 12 -20 21 -20 12 0 16 -10 16
-35 0 -28 4 -35 20 -35 13 0 20 -7 20 -20 0 -13 7 -20 20 -20 17 0 20 -7 20
-40 0 -33 3 -40 20 -40 13 0 20 -7 20 -20 0 -13 7 -20 20 -20 13 0 20 -7 20
-20 0 -11 7 -20 15 -20 8 0 17 -14 21 -35 3 -20 12 -35 20 -35 10 0 14 -15 14
-60 0 -47 -3 -60 -15 -60 -8 0 -15 -9 -15 -20 0 -20 -7 -20 -2790 -20 -2783 0
-2790 0 -2790 20 0 17 -7 20 -40 20 -33 0 -40 3 -40 20 0 13 -7 20 -20 20 -11
0 -20 6 -20 14 0 7 -9 16 -20 19 -12 3 -20 14 -20 26 0 12 -6 21 -15 21 -8 0
-17 14 -21 35 -4 25 -11 35 -25 35 -12 0 -19 7 -19 19 0 10 -9 21 -20 24 -11
3 -20 12 -20 21 0 9 -7 16 -15 16 -10 0 -15 11 -15 35 0 28 -4 35 -20 35 -13
0 -20 7 -20 20 0 13 -7 20 -20 20 -15 0 -20 7 -20 25 0 15 -6 25 -15 25 -8 0
-17 14 -21 35 -4 25 -11 35 -25 35 -12 0 -19 7 -19 20 0 11 -7 20 -15 20 -8 0
-17 14 -21 35 -3 20 -12 35 -20 35 -8 0 -14 9 -14 20 0 13 -7 20 -20 20 -13 0
-20 7 -20 20 0 13 -7 20 -20 20 -17 0 -20 7 -20 40 0 33 -3 40 -20 40 -11 0
-20 6 -20 14 0 7 -9 16 -20 19 -12 3 -20 14 -20 26 0 12 -6 21 -15 21 -8 0
-17 14 -21 35 -4 21 -12 35 -21 35 -8 0 -17 9 -20 20 -3 11 -12 20 -19 20 -8
0 -14 9 -14 20 0 13 -7 20 -20 20 -16 0 -20 7 -20 35 0 28 -4 35 -20 35 -15 0
-20 7 -20 25 0 18 -5 25 -20 25 -16 0 -20 7 -20 35 0 28 -4 35 -20 35 -13 0
-20 7 -20 20 0 12 -7 20 -16 20 -9 0 -18 9 -21 20 -3 11 -11 20 -18 20 -7 0
-16 16 -19 35 -4 21 -13 35 -21 35 -8 0 -15 9 -15 20 0 13 -7 20 -20 20 -13 0
-20 7 -20 19 0 10 -9 21 -20 24 -15 4 -20 14 -20 41 0 29 -4 36 -20 36 -13 0
-20 7 -20 20 0 13 -7 20 -20 20 -13 0 -20 7 -20 20 0 11 -7 20 -15 20 -10 0
-15 11 -15 35 0 28 -4 35 -20 35 -13 0 -20 7 -20 20 0 13 -7 20 -20 20 -16 0
-20 7 -20 34 0 25 -5 35 -20 39 -11 3 -20 12 -20 20 0 8 -9 17 -20 20 -12 3
-20 14 -20 26 0 12 -6 21 -15 21 -8 0 -17 14 -21 35 -4 25 -11 35 -25 35 -12
0 -19 7 -19 20 0 11 -7 20 -15 20 -8 0 -15 9 -15 20 0 13 -7 20 -20 20 -16 0
-20 7 -20 35 0 28 -4 35 -20 35 -13 0 -20 7 -20 19 0 10 -9 21 -20 24 -12 3
-20 14 -20 26 0 12 -6 21 -15 21 -8 0 -17 14 -21 35 -4 25 -11 35 -25 35 -12
0 -19 7 -19 20 0 11 -6 20 -14 20 -8 0 -17 15 -20 35 -4 21 -13 35 -21 35 -8
0 -15 9 -15 20 0 13 -7 20 -20 20 -13 0 -20 7 -20 20 0 13 -7 20 -20 20 -17 0
-20 7 -20 40 0 33 -3 40 -20 40 -13 0 -20 7 -20 20 0 13 -7 20 -20 20 -13 0
-20 7 -20 20 0 11 -7 20 -15 20 -8 0 -17 14 -21 35 -3 20 -12 35 -20 35 -8 0
-14 9 -14 20 0 13 -7 20 -20 20 -13 0 -20 7 -20 20 0 11 -7 20 -15 20 -8 0
-17 14 -20 34 -5 22 -14 36 -26 39 -11 3 -19 14 -19 26 0 14 -6 21 -20 21 -16
0 -20 7 -20 35 0 28 -4 35 -20 35 -13 0 -20 7 -20 20 0 11 -7 20 -15 20 -8 0
-15 9 -15 20 0 13 -7 20 -20 20 -16 0 -20 7 -20 35 0 28 -4 35 -20 35 -13 0
-20 7 -20 20 0 13 -7 20 -20 20 -13 0 -20 7 -20 20 0 11 -6 20 -14 20 -9 0
-17 15 -21 40 -5 30 -11 40 -26 40 -12 0 -19 7 -19 20 0 11 -7 20 -15 20 -8 0
-15 7 -15 16 0 9 -9 18 -20 21 -15 4 -20 14 -20 39 0 27 -4 34 -20 34 -13 0
-20 7 -20 20 0 13 -7 20 -20 20 -17 0 -20 7 -20 40 0 33 -3 40 -20 40 -11 0
-20 6 -20 14 0 7 -9 16 -20 19 -12 3 -20 14 -20 26 0 12 -6 21 -15 21 -8 0
-17 14 -21 35 -3 20 -12 35 -20 35 -8 0 -14 9 -14 20 0 13 -7 20 -20 20 -13 0
-20 7 -20 20 0 13 -7 20 -20 20 -17 0 -20 7 -20 40 0 29 -4 40 -15 40 -8 0
-15 7 -15 15 0 8 7 15 15 15 9 0 15 9 15 25 0 18 5 25 20 25 11 0 20 7 20 15
0 13 314 15 2770 15 2456 0 2770 -2 2770 -15z m88 -10441 c12 -4 22 -13 22
-20 0 -8 9 -14 20 -14 13 0 20 -7 20 -20 0 -13 7 -20 20 -20 13 0 20 -7 20
-20 0 -13 7 -20 20 -20 13 0 20 -7 20 -20 0 -13 7 -20 20 -20 16 0 20 -7 20
-35 0 -28 4 -35 20 -35 13 0 20 -7 20 -19 0 -10 9 -21 20 -24 11 -3 20 -12 20
-21 0 -9 6 -16 14 -16 9 0 17 -15 21 -40 4 -25 12 -40 21 -40 8 0 14 -9 14
-20 0 -13 7 -20 20 -20 13 0 20 -7 20 -20 0 -13 7 -20 20 -20 16 0 20 -7 20
-35 0 -28 4 -35 20 -35 13 0 20 -7 20 -19 0 -10 9 -21 20 -24 11 -3 20 -12 20
-21 0 -9 6 -16 14 -16 8 0 17 -15 20 -35 4 -21 13 -35 21 -35 9 0 15 -10 15
-25 0 -18 5 -25 20 -25 16 0 20 -7 20 -35 0 -28 4 -35 20 -35 13 0 20 -7 20
-20 0 -13 7 -20 20 -20 13 0 20 -7 20 -20 0 -11 7 -20 15 -20 8 0 17 -14 20
-34 5 -22 14 -36 26 -39 10 -3 19 -12 19 -21 0 -9 7 -16 15 -16 8 0 15 -9 15
-20 0 -13 7 -20 20 -20 17 0 20 -7 20 -40 0 -33 3 -40 20 -40 13 0 20 -7 20
-20 0 -13 7 -20 20 -20 13 0 20 -7 20 -20 0 -11 7 -20 15 -20 8 0 17 -14 21
-35 4 -25 11 -35 25 -35 12 0 19 -7 19 -20 0 -11 6 -20 14 -20 9 0 17 -15 21
-40 4 -25 12 -40 21 -40 8 0 14 -7 14 -15 0 -8 9 -15 20 -15 15 0 20 -7 20
-25 0 -18 5 -25 20 -25 16 0 20 -7 20 -35 0 -28 4 -35 20 -35 13 0 20 -7 20
-20 0 -13 7 -20 20 -20 13 0 20 -7 20 -20 0 -11 6 -20 14 -20 8 0 17 -15 20
-35 4 -21 13 -35 21 -35 8 0 15 -9 15 -20 0 -13 7 -20 20 -20 15 0 20 -7 20
-25 0 -15 6 -25 15 -25 8 0 17 -14 21 -35 4 -25 11 -35 25 -35 12 0 19 -7 19
-20 0 -13 7 -20 20 -20 16 0 20 -7 20 -34 0 -25 5 -35 20 -39 11 -3 20 -12 20
-21 0 -9 7 -16 15 -16 8 0 15 -9 15 -20 0 -13 7 -20 20 -20 17 0 20 -7 20 -40
0 -33 3 -40 20 -40 13 0 20 -7 20 -20 0 -13 7 -20 20 -20 13 0 20 -7 20 -20 0
-11 7 -20 15 -20 8 0 17 -14 21 -35 4 -25 11 -35 25 -35 12 0 19 -7 19 -20 0
-11 7 -20 15 -20 8 0 15 -9 15 -20 0 -13 7 -20 20 -20 16 0 20 -7 20 -35 0
-28 4 -35 20 -35 15 0 20 -7 20 -25 0 -18 5 -25 20 -25 16 0 20 -7 20 -35 0
-28 4 -35 20 -35 13 0 20 -7 20 -20 0 -13 7 -20 20 -20 13 0 20 -7 20 -20 0
-11 6 -20 14 -20 8 0 17 -15 20 -35 4 -21 13 -35 21 -35 8 0 15 -9 15 -20 0
-13 7 -20 20 -20 13 0 20 -7 20 -19 0 -10 9 -21 20 -24 15 -4 20 -14 20 -41 0
-29 4 -36 20 -36 13 0 20 -7 20 -20 0 -13 7 -20 20 -20 13 0 20 -7 20 -20 0
-11 7 -20 15 -20 8 0 17 -14 21 -35 4 -21 12 -35 21 -35 8 0 17 -9 20 -20 3
-11 12 -20 19 -20 10 0 14 -13 14 -40 0 -33 3 -40 20 -40 13 0 20 -7 20 -20 0
-13 7 -20 20 -20 13 0 20 -7 20 -20 0 -13 7 -20 20 -20 16 0 20 -7 20 -35 0
-28 4 -35 20 -35 13 0 20 -7 20 -20 0 -11 7 -20 15 -20 8 0 15 -9 15 -20 0
-13 7 -20 20 -20 16 0 20 -7 20 -35 0 -28 4 -35 20 -35 13 0 20 -7 20 -19 0
-10 9 -21 20 -24 12 -3 20 -14 20 -26 0 -12 6 -21 15 -21 8 0 17 -14 21 -35 4
-25 11 -35 25 -35 12 0 19 -7 19 -20 0 -11 7 -20 15 -20 8 0 17 -14 20 -34 5
-22 14 -36 26 -39 15 -4 19 -14 19 -50 0 -24 -3 -59 -6 -76 l-6 -31 -2824 0
c-2425 0 -2824 2 -2824 14 0 9 -15 17 -40 21 -25 4 -40 12 -40 21 0 8 -9 14
-20 14 -13 0 -20 7 -20 19 0 10 -9 21 -20 24 -11 3 -20 12 -20 21 0 9 -6 16
-14 16 -9 0 -17 15 -21 40 -4 25 -12 40 -21 40 -8 0 -14 9 -14 20 0 13 -7 20
-20 20 -13 0 -20 7 -20 20 0 11 -7 20 -15 20 -8 0 -17 14 -21 35 -4 25 -11 35
-25 35 -12 0 -19 7 -19 20 0 11 -6 20 -14 20 -9 0 -17 15 -21 40 -5 30 -11 40
-26 40 -10 0 -19 7 -19 15 0 8 -7 15 -15 15 -9 0 -15 9 -15 21 0 12 -8 23 -20
26 -15 4 -20 14 -20 39 0 27 -4 34 -20 34 -13 0 -20 7 -20 20 0 13 -7 20 -20
20 -13 0 -20 7 -20 20 0 11 -7 20 -15 20 -8 0 -17 14 -21 35 -4 21 -12 35 -21
35 -8 0 -17 9 -20 20 -3 11 -12 20 -19 20 -8 0 -14 9 -14 21 0 12 -8 23 -20
26 -15 4 -20 14 -20 39 0 27 -4 34 -20 34 -13 0 -20 7 -20 20 0 13 -7 20 -20
20 -16 0 -20 7 -20 35 0 28 -4 35 -20 35 -13 0 -20 7 -20 20 0 12 -7 20 -16
20 -9 0 -18 9 -21 20 -3 11 -11 20 -18 20 -8 0 -16 17 -20 40 -4 23 -12 40
-20 40 -7 0 -15 9 -18 20 -3 11 -12 20 -21 20 -9 0 -16 8 -16 20 0 13 -7 20
-20 20 -16 0 -20 7 -20 35 0 28 -4 35 -20 35 -13 0 -20 7 -20 20 0 13 -7 20
-20 20 -13 0 -20 7 -20 20 0 11 -6 20 -14 20 -8 0 -17 15 -20 35 -4 21 -13 35
-21 35 -9 0 -15 9 -15 21 0 12 -8 23 -20 26 -15 4 -20 14 -20 39 0 27 -4 34
-20 34 -13 0 -20 7 -20 20 0 13 -7 20 -20 20 -13 0 -20 7 -20 20 0 11 -7 20
-15 20 -8 0 -17 14 -20 34 -5 22 -14 36 -26 39 -10 3 -19 12 -19 21 0 9 -7 16
-15 16 -8 0 -15 9 -15 20 0 13 -7 20 -19 20 -15 0 -21 10 -26 40 -4 25 -12 40
-21 40 -8 0 -14 9 -14 20 0 13 -7 20 -20 20 -13 0 -20 7 -20 20 0 11 -7 20
-15 20 -8 0 -17 14 -21 35 -4 25 -11 35 -25 35 -12 0 -19 7 -19 20 0 11 -6 20
-14 20 -9 0 -17 15 -21 40 -4 23 -12 40 -20 40 -7 0 -15 9 -18 20 -3 11 -12
20 -21 20 -9 0 -16 8 -16 20 0 13 -7 20 -20 20 -16 0 -20 7 -20 35 0 28 -4 35
-20 35 -13 0 -20 7 -20 20 0 13 -7 20 -20 20 -13 0 -20 7 -20 20 0 11 -7 20
-15 20 -8 0 -17 14 -21 35 -4 21 -12 35 -21 35 -8 0 -17 9 -20 20 -3 11 -12
20 -19 20 -8 0 -14 9 -14 21 0 12 -8 23 -20 26 -15 4 -20 14 -20 39 0 27 -4
34 -20 34 -13 0 -20 7 -20 20 0 13 -7 20 -20 20 -16 0 -20 7 -20 35 0 28 -4
35 -20 35 -13 0 -20 7 -20 19 0 10 -9 21 -20 24 -11 3 -20 12 -20 21 0 9 -6
16 -14 16 -9 0 -17 15 -21 40 -4 25 -12 40 -21 40 -8 0 -14 9 -14 20 0 13 -7
20 -20 20 -13 0 -20 7 -20 20 0 13 -7 20 -20 20 -16 0 -20 7 -20 35 0 28 -4
35 -20 35 -13 0 -20 7 -20 20 0 12 -7 20 -16 20 -9 0 -18 9 -21 20 -3 11 -11
20 -18 20 -7 0 -16 16 -19 35 -4 21 -13 35 -21 35 -9 0 -15 10 -15 25 0 18 -5
25 -20 25 -16 0 -20 7 -20 35 0 28 -4 35 -20 35 -13 0 -20 7 -20 20 0 13 -7
20 -20 20 -13 0 -20 7 -20 20 0 11 -7 20 -15 20 -8 0 -17 14 -20 34 -5 22 -14
36 -26 39 -10 3 -19 12 -19 21 0 9 -7 16 -15 16 -8 0 -15 9 -15 20 0 13 -7 20
-20 20 -17 0 -20 7 -20 40 0 33 -3 40 -20 40 -18 0 -20 7 -20 74 0 69 2 75 23
79 35 7 5619 7 5645 1z"/>
</g>
</svg>
